<?xml version="1.0" encoding="UTF-8"?>
<!DOCTYPE svg
PUBLIC "-//W3C//DTD SVG 1.1//EN"
       "http://www.w3.org/Graphics/SVG/1.1/DTD/svg11.dtd">
<svg version="1.1" xmlns="http://www.w3.org/2000/svg" xmlns:xlink="http://www.w3.org/1999/xlink" viewBox="-4 -4 25 25" >
 <g>
  <rect height="20.4156" opacity="0" width="18.6585" x="0" y="0"/>
  <path d="M0 16.8924C0 18.8345 3.9583 20.4156 9.32471 20.4156C14.6911 20.4156 18.6585 18.8345 18.6585 16.8924C18.6585 16.6435 18.5938 16.4108 18.469 16.1816L10.0247 1.04052C9.88819 0.807222 9.62881 0.655758 9.32471 0.655758C9.02969 0.655758 8.77032 0.807222 8.63379 1.04052L0.180373 16.1816C0.0647467 16.4108 0 16.6435 0 16.8924ZM0.479012 16.8924C0.479012 16.6669 0.604598 16.406 0.704305 16.2358L9.03995 1.29757C9.09717 1.18243 9.20118 1.10773 9.32471 1.10773C9.44825 1.10773 9.55225 1.18243 9.61856 1.29757L17.9542 16.2358C18.0539 16.406 18.1704 16.6669 18.1704 16.8924C18.1704 18.5009 14.2188 19.9359 9.32471 19.9359C4.43067 19.9359 0.479012 18.5009 0.479012 16.8924Z" fill="#A9BBCA" fill-opacity="0.85"/>
 </g>


</svg>
