<?xml version="1.0" encoding="UTF-8"?>
<!DOCTYPE svg
PUBLIC "-//W3C//DTD SVG 1.1//EN"
       "http://www.w3.org/Graphics/SVG/1.1/DTD/svg11.dtd">
<svg version="1.1" xmlns="http://www.w3.org/2000/svg" xmlns:xlink="http://www.w3.org/1999/xlink" viewBox="-4 -4 25 25" >
 <g>
  <rect height="20.4156" opacity="0" width="18.6585" x="0" y="0"/>
  <path d="M0 16.8924C0 18.8345 3.9583 20.4156 9.32471 20.4156C14.6911 20.4156 18.6585 18.8345 18.6585 16.8924C18.6585 16.6435 18.5938 16.4108 18.469 16.1816L10.0247 1.04052C9.87002 0.789058 9.60997 0.618746 9.32471 0.618746C9.03946 0.618746 8.7794 0.789058 8.63379 1.04052L0.180373 16.1816C0.0465828 16.4108 0 16.6435 0 16.8924Z" fill="#ffffff" fill-opacity="0.85"/>
 </g>
<g transform="matrix(0.311284, 0, 0, 0.311284, -4, -4)" style="">
          <rect height="18.9326" opacity="0" width="18.9319" x="0" y="0"></rect>
          <path d="M9.46143 18.9229C14.6745 18.9229 18.9319 14.6648 18.9319 9.46143C18.9319 4.25742 14.6738 0 9.46075 0C4.25742 0 0 4.25742 0 9.46143C0 14.6648 4.25811 18.9229 9.46143 18.9229ZM9.46143 18.4434C4.50694 18.4434 0.480185 14.4159 0.480185 9.46143C0.480185 4.50694 4.50626 0.47042 9.46075 0.47042C14.4152 0.47042 18.4524 4.50694 18.4524 9.46143C18.4524 14.4159 14.4159 18.4434 9.46143 18.4434Z" fill="#ffffff" fill-opacity="0.85"></path>
          <path d="M13.8578 10.5498C14.484 10.5498 14.9832 10.0513 14.9832 9.4335C14.9832 8.81573 14.484 8.31719 13.8578 8.31719C13.24 8.31719 12.7415 8.81573 12.7415 9.4335C12.7415 10.0513 13.24 10.5498 13.8578 10.5498Z" fill="#ffffff" fill-opacity="0.85"></path>
          <path d="M9.46075 10.5498C10.0876 10.5498 10.5771 10.0513 10.5771 9.4335C10.5771 8.81573 10.0876 8.31719 9.46075 8.31719C8.84297 8.31719 8.34444 8.81573 8.34444 9.4335C8.34444 10.0513 8.84297 10.5498 9.46075 10.5498Z" fill="#ffffff" fill-opacity="0.85"></path>
          <path d="M5.06436 10.5498C5.69053 10.5498 6.17999 10.0513 6.17999 9.4335C6.17999 8.81573 5.68985 8.31719 5.06436 8.31719C4.44658 8.31719 3.94805 8.81573 3.94805 9.4335C3.94805 10.0513 4.44658 10.5498 5.06436 10.5498Z" fill="#ffffff" fill-opacity="0.85"></path>
        </g>
        <g transform="matrix(0.311284, 0, 0, 0.311284, 17.120214, -4)" style="">
          <rect height="18.9326" opacity="0" width="18.9319" x="0" y="0"></rect>
          <path d="M9.46143 18.9229C14.6745 18.9229 18.9319 14.6648 18.9319 9.46143C18.9319 4.25742 14.6738 0 9.46075 0C4.25742 0 0 4.25742 0 9.46143C0 14.6648 4.25811 18.9229 9.46143 18.9229ZM9.46143 18.4434C4.50694 18.4434 0.480185 14.4159 0.480185 9.46143C0.480185 4.50694 4.50626 0.47042 9.46075 0.47042C14.4152 0.47042 18.4524 4.50694 18.4524 9.46143C18.4524 14.4159 14.4159 18.4434 9.46143 18.4434Z" fill="#ffffff" fill-opacity="0.85"></path>
          <path d="M13.8578 10.5498C14.484 10.5498 14.9832 10.0513 14.9832 9.4335C14.9832 8.81573 14.484 8.31719 13.8578 8.31719C13.24 8.31719 12.7415 8.81573 12.7415 9.4335C12.7415 10.0513 13.24 10.5498 13.8578 10.5498Z" fill="#ffffff" fill-opacity="0.85"></path>
          <path d="M9.46075 10.5498C10.0876 10.5498 10.5771 10.0513 10.5771 9.4335C10.5771 8.81573 10.0876 8.31719 9.46075 8.31719C8.84297 8.31719 8.34444 8.81573 8.34444 9.4335C8.34444 10.0513 8.84297 10.5498 9.46075 10.5498Z" fill="#ffffff" fill-opacity="0.85"></path>
          <path d="M5.06436 10.5498C5.69053 10.5498 6.17999 10.0513 6.17999 9.4335C6.17999 8.81573 5.68985 8.31719 5.06436 8.31719C4.44658 8.31719 3.94805 8.81573 3.94805 9.4335C3.94805 10.0513 4.44658 10.5498 5.06436 10.5498Z" fill="#ffffff" fill-opacity="0.85"></path>
        </g>
</svg>
