<?xml version="1.0" encoding="UTF-8"?>
<!DOCTYPE svg
PUBLIC "-//W3C//DTD SVG 1.1//EN"
       "http://www.w3.org/Graphics/SVG/1.1/DTD/svg11.dtd">
       <svg version="1.1" xmlns="http://www.w3.org/2000/svg" xmlns:xlink="http://www.w3.org/1999/xlink" viewBox="-4 -4 25 25" >
        <defs></defs>
        <g>
          <rect height="20.4548" opacity="0" width="19.0811" x="0" y="0"></rect>
          <path d="M0.858598 15.6763L8.92559 20.059C9.34531 20.2806 9.72666 20.2897 10.1652 20.059L18.2225 15.6763C18.8757 15.3228 19.0811 14.9233 19.0811 14.2443L19.0811 5.52C19.0811 5.1492 18.8462 4.87771 18.5254 4.69958L10.4579 0.247048C9.88477-0.0823493 9.19629-0.0823493 8.62314 0.247048L0.565435 4.69958C0.234864 4.87771 0 5.1492 0 5.52L0 14.2443C0 14.9233 0.206057 15.3228 0.858598 15.6763ZM1.31973 15.3862C0.617098 15.0101 0.530769 14.7508 0.530769 14.1864L0.530769 5.67811L9.2916 10.4143L9.2916 19.6732ZM17.7711 15.3862L9.79854 19.6732L9.79854 10.4143L18.5503 5.67811L18.5503 14.1864C18.5503 14.7508 18.464 15.0101 17.7711 15.3862ZM9.54541 9.99167L0.644056 5.18826L9.00498 0.580943C9.34824 0.387387 9.7419 0.386703 10.0768 0.580943L18.4468 5.18826Z" fill="#ffffff" fill-opacity="0.85"></path>
        </g>
        <g transform="matrix(0.311284, 0, 0, 0.311284, -4, -4)" style="">
  <rect height="18.9326" opacity="0" width="18.9319" x="0" y="0"/>
  <path d="M9.46143 18.9229C14.6745 18.9229 18.9319 14.6648 18.9319 9.46143C18.9319 4.25742 14.6738 0 9.46075 0C4.25742 0 0 4.25742 0 9.46143C0 14.6648 4.25811 18.9229 9.46143 18.9229ZM9.46143 18.4434C4.50694 18.4434 0.480185 14.4159 0.480185 9.46143C0.480185 4.50694 4.50626 0.47042 9.46075 0.47042C14.4152 0.47042 18.4524 4.50694 18.4524 9.46143C18.4524 14.4159 14.4159 18.4434 9.46143 18.4434Z" fill="#ffffff" fill-opacity="0.85"/>
  <path d="M5.36914 8.75235C5.49571 8.75235 5.6084 8.64034 5.6084 8.50469L5.6084 7.70831L5.5918 5.8838L8.41025 8.74542C8.5209 8.85811 8.68086 8.85743 8.77335 8.7461C8.87491 8.65362 8.87423 8.49297 8.77266 8.39209L5.91241 5.57501L7.57911 5.57276L8.53897 5.59092C8.67462 5.59092 8.77755 5.47891 8.77755 5.35235C8.77755 5.2167 8.67462 5.104 8.53897 5.104L5.36827 5.104C5.23281 5.104 5.12148 5.20147 5.12148 5.34239L5.12148 8.50469C5.12148 8.64034 5.2335 8.75235 5.36914 8.75235ZM10.3923 13.7748L13.5623 13.7748C13.6978 13.7748 13.8007 13.6774 13.8007 13.5364L13.8007 10.3741C13.8007 10.2385 13.6971 10.1355 13.5614 10.1355C13.4349 10.1355 13.3229 10.2385 13.3229 10.3741L13.3229 11.1796L13.3297 13.0041L10.5119 10.1334C10.4097 10.0298 10.2504 10.0305 10.1572 10.1327C10.0557 10.2343 10.0563 10.3858 10.1579 10.4867L13.0188 13.3038L11.3431 13.3061L10.3923 13.2879C10.2566 13.2879 10.153 13.3999 10.153 13.5356C10.153 13.6621 10.2566 13.7748 10.3923 13.7748Z" fill="#ffffff" fill-opacity="0.85"/>
 </g>

      </svg>
