<?xml version="1.0" encoding="UTF-8"?>
<!DOCTYPE svg PUBLIC "-//W3C//DTD SVG 1.1//EN" "http://www.w3.org/Graphics/SVG/1.1/DTD/svg11.dtd">
<svg xmlns="http://www.w3.org/2000/svg" xmlns:xlink="http://www.w3.org/1999/xlink" version="1.1" viewBox="-4 -4 25 25">
  <g>
    <rect height="20.5168" opacity="0" width="19.0788" x="0" y="0"/>
    <path d="M9.53975 10.0041L18.7571 4.96113C18.6924 4.87822 18.6165 4.81553 18.4198 4.69834L10.4627 0.282131C10.1304 0.0947273 9.83438 0 9.53975 0C9.24443 0 8.95752 0.0947273 8.62519 0.282131L0.659673 4.7165C0.472075 4.81553 0.387113 4.87822 0.330765 4.96113ZM9.17471 20.1874L9.17471 10.6674L0.0508791 5.7418C0.0104493 5.8295 0 5.93672 0 6.14795L0 14.273C0 14.9534 0.207424 15.3536 0.860649 15.7077L8.90742 20.0814C8.98418 20.1204 9.08818 20.186 9.17471 20.1874ZM9.91319 20.1874C9.99971 20.186 10.0946 20.1204 10.1721 20.0814L18.2182 15.7077C18.8721 15.3536 19.0788 14.9534 19.0788 14.273L19.0788 6.14795C19.0788 5.93672 19.0684 5.8295 19.037 5.7418L9.91319 10.6674Z" fill="#A9BBCA" fill-opacity="0.85"/>
  </g>
</svg>
