<?xml version="1.0" encoding="UTF-8"?>
<!--Generator: Apple Native CoreSVG 232.5-->
<!DOCTYPE svg PUBLIC "-//W3C//DTD SVG 1.1//EN" "http://www.w3.org/Graphics/SVG/1.1/DTD/svg11.dtd">
<svg xmlns="http://www.w3.org/2000/svg" xmlns:xlink="http://www.w3.org/1999/xlink" version="1.1" viewBox="-4 -4 25 25">
  <g>
    <rect height="20.4709" opacity="0" width="19.0788" x="0" y="0"/>
    <path d="M9.78262 7.03496L9.78262 9.84756L18.7571 4.93818C18.6924 4.85527 18.6165 4.79258 18.4198 4.67539L10.4627 0.259181C10.2181 0.125391 10.0091 0.0333989 9.78262 0L9.78262 2.7166L9.29844 2.7166L9.29844 0.002051C9.0831 0.0347662 8.86845 0.117677 8.62519 0.259181L0.659673 4.69355C0.472075 4.79258 0.387113 4.85527 0.330765 4.93818L9.29844 9.85254L9.29844 7.03496ZM9.29844 6.29834L9.29844 3.46299L9.78262 3.46299L9.78262 6.29834ZM9.91319 20.1645C9.99971 20.1631 10.0946 20.0975 10.1721 20.0584L18.2182 15.6848C18.4314 15.5726 18.5868 15.4499 18.7108 15.3161L16.3477 14.1027L16.5808 13.6645L18.9846 14.9121C19.0418 14.7168 19.0788 14.5117 19.0788 14.2501L19.0788 6.125C19.0788 5.91377 19.0684 5.80655 19.037 5.71885L10.3025 10.423L12.7396 11.6858L12.5253 12.115L9.91319 10.7649ZM15.7005 13.7613L13.1732 12.4571L13.3972 12.037L15.9148 13.3321ZM9.17471 20.1645L9.17471 10.7468L6.54444 12.115L6.33018 11.6858L8.76719 10.423L0.0508791 5.71885C0.0104493 5.80655 0 5.91377 0 6.125L0 14.2501C0 14.4929 0.0286132 14.7077 0.10332 14.8933L2.48896 13.6645L2.72207 14.1027L0.358889 15.3161C0.482913 15.4499 0.657132 15.5726 0.860649 15.6848L8.90742 20.0584C8.98418 20.0975 9.08818 20.1631 9.17471 20.1645ZM3.36924 13.7613L3.15498 13.3321L5.67324 12.037L5.89658 12.4571Z" fill="#A9BBCA" fill-opacity="0.85"/>
  </g>
  <g transform="matrix(0.311284, 0, 0, 0.311284, -4, -4)" style="">
    <rect height="18.9326" opacity="0" width="18.9319" x="0" y="0"/>
    <path d="M9.46143 18.9229C14.6745 18.9229 18.9319 14.6648 18.9319 9.46143C18.9319 4.25742 14.6738 0 9.46075 0C4.25742 0 0 4.25742 0 9.46143C0 14.6648 4.25811 18.9229 9.46143 18.9229ZM9.46143 18.4434C4.50694 18.4434 0.480185 14.4159 0.480185 9.46143C0.480185 4.50694 4.50626 0.47042 9.46075 0.47042C14.4152 0.47042 18.4524 4.50694 18.4524 9.46143C18.4524 14.4159 14.4159 18.4434 9.46143 18.4434Z" fill="#A9BBCA" fill-opacity="0.85"/>
    <path d="M5.36914 8.75235C5.49571 8.75235 5.6084 8.64034 5.6084 8.50469L5.6084 7.70831L5.5918 5.8838L8.41025 8.74542C8.5209 8.85811 8.68086 8.85743 8.77335 8.7461C8.87491 8.65362 8.87423 8.49297 8.77266 8.39209L5.91241 5.57501L7.57911 5.57276L8.53897 5.59092C8.67462 5.59092 8.77755 5.47891 8.77755 5.35235C8.77755 5.2167 8.67462 5.104 8.53897 5.104L5.36827 5.104C5.23281 5.104 5.12148 5.20147 5.12148 5.34239L5.12148 8.50469C5.12148 8.64034 5.2335 8.75235 5.36914 8.75235ZM10.3923 13.7748L13.5623 13.7748C13.6978 13.7748 13.8007 13.6774 13.8007 13.5364L13.8007 10.3741C13.8007 10.2385 13.6971 10.1355 13.5614 10.1355C13.4349 10.1355 13.3229 10.2385 13.3229 10.3741L13.3229 11.1796L13.3297 13.0041L10.5119 10.1334C10.4097 10.0298 10.2504 10.0305 10.1572 10.1327C10.0557 10.2343 10.0563 10.3858 10.1579 10.4867L13.0188 13.3038L11.3431 13.3061L10.3923 13.2879C10.2566 13.2879 10.153 13.3999 10.153 13.5356C10.153 13.6621 10.2566 13.7748 10.3923 13.7748Z" fill="#A9BBCA" fill-opacity="0.85"/>
  </g>
  <g transform="matrix(0.311284, 0, 0, 0.311284, 17.120214, -4)" style="">
    <rect height="18.9326" opacity="0" width="18.9319" x="0" y="0"/>
    <path d="M9.46143 18.9229C14.6745 18.9229 18.9319 14.6648 18.9319 9.46143C18.9319 4.25742 14.6738 0 9.46075 0C4.25742 0 0 4.25742 0 9.46143C0 14.6648 4.25811 18.9229 9.46143 18.9229ZM9.46143 18.4434C4.50694 18.4434 0.480185 14.4159 0.480185 9.46143C0.480185 4.50694 4.50626 0.47042 9.46075 0.47042C14.4152 0.47042 18.4524 4.50694 18.4524 9.46143C18.4524 14.4159 14.4159 18.4434 9.46143 18.4434Z" fill="#A9BBCA" fill-opacity="0.85"/>
    <path d="M13.5614 8.75235C13.6971 8.75235 13.8007 8.64034 13.8007 8.50469L13.8007 5.34239C13.8007 5.20147 13.6978 5.104 13.5623 5.104L10.3923 5.104C10.2566 5.104 10.153 5.2167 10.153 5.35235C10.153 5.47891 10.2566 5.59092 10.3923 5.59092L11.3431 5.57276L13.0188 5.57501L10.1579 8.39209C10.0563 8.49297 10.0557 8.65362 10.1572 8.7461C10.2504 8.85743 10.4097 8.85811 10.5119 8.74542L13.3297 5.8838L13.3229 7.70831L13.3229 8.50469C13.3229 8.64034 13.4349 8.75235 13.5614 8.75235ZM8.53897 13.7748C8.67462 13.7748 8.77755 13.6621 8.77755 13.5356C8.77755 13.3999 8.67462 13.2879 8.53897 13.2879L7.57911 13.3061L5.91241 13.3038L8.77266 10.4867C8.87423 10.3858 8.87491 10.2343 8.77335 10.1327C8.68086 10.0305 8.5209 10.0298 8.41025 10.1334L5.5918 13.0041L5.6084 11.1796L5.6084 10.3741C5.6084 10.2385 5.49571 10.1355 5.36914 10.1355C5.2335 10.1355 5.12148 10.2385 5.12148 10.3741L5.12148 13.5364C5.12148 13.6774 5.23281 13.7748 5.36827 13.7748Z" fill="#A9BBCA" fill-opacity="0.85"/>
  </g>
</svg>
