<?xml version="1.0" encoding="UTF-8"?>
<!DOCTYPE svg
PUBLIC "-//W3C//DTD SVG 1.1//EN"
       "http://www.w3.org/Graphics/SVG/1.1/DTD/svg11.dtd">
<svg version="1.1" xmlns="http://www.w3.org/2000/svg" xmlns:xlink="http://www.w3.org/1999/xlink" viewBox="-2 -2 25 25" >
 <g>
  <rect height="20.5168" opacity="0" width="19.0788" x="0" y="0"/>
  <path d="M9.53975 10.0041L18.7571 4.96113C18.6924 4.87822 18.6165 4.81553 18.4198 4.69834L10.4627 0.282131C10.1304 0.0947273 9.83438 0 9.53975 0C9.24443 0 8.95752 0.0947273 8.62519 0.282131L0.659673 4.7165C0.472075 4.81553 0.387113 4.87822 0.330765 4.96113ZM9.17471 20.1874L9.17471 10.6674L0.0508791 5.7418C0.0104493 5.8295 0 5.93672 0 6.14795L0 14.273C0 14.9534 0.207424 15.3536 0.860649 15.7077L8.90742 20.0814C8.98418 20.1204 9.08818 20.186 9.17471 20.1874ZM9.91319 20.1874C9.99971 20.186 10.0946 20.1204 10.1721 20.0814L18.2182 15.7077C18.8721 15.3536 19.0788 14.9534 19.0788 14.273L19.0788 6.14795C19.0788 5.93672 19.0684 5.8295 19.037 5.7418L9.91319 10.6674Z" fill="#ffffff" fill-opacity="0.85"/>
 </g>

  <g transform="matrix(0.211284, 0, 0, 0.211284, 17.120214, -2)" style="">
    <rect height="18.9326" opacity="0" width="18.9319" x="0" y="0"></rect>
    <path d="M9.46143 18.9229C14.6745 18.9229 18.9319 14.6648 18.9319 9.46143C18.9319 4.25742 14.6738 0 9.46075 0C4.25742 0 0 4.25742 0 9.46143C0 14.6648 4.25811 18.9229 9.46143 18.9229ZM9.46143 18.4434C4.50694 18.4434 0.480185 14.4159 0.480185 9.46143C0.480185 4.50694 4.50626 0.47042 9.46075 0.47042C14.4152 0.47042 18.4524 4.50694 18.4524 9.46143C18.4524 14.4159 14.4159 18.4434 9.46143 18.4434Z" fill="#ffffff" fill-opacity="0.85"></path>
    <path d="M13.8578 10.5498C14.484 10.5498 14.9832 10.0513 14.9832 9.4335C14.9832 8.81573 14.484 8.31719 13.8578 8.31719C13.24 8.31719 12.7415 8.81573 12.7415 9.4335C12.7415 10.0513 13.24 10.5498 13.8578 10.5498Z" fill="#ffffff" fill-opacity="0.85"></path>
    <path d="M9.46075 10.5498C10.0876 10.5498 10.5771 10.0513 10.5771 9.4335C10.5771 8.81573 10.0876 8.31719 9.46075 8.31719C8.84297 8.31719 8.34444 8.81573 8.34444 9.4335C8.34444 10.0513 8.84297 10.5498 9.46075 10.5498Z" fill="#ffffff" fill-opacity="0.85"></path>
    <path d="M5.06436 10.5498C5.69053 10.5498 6.17999 10.0513 6.17999 9.4335C6.17999 8.81573 5.68985 8.31719 5.06436 8.31719C4.44658 8.31719 3.94805 8.81573 3.94805 9.4335C3.94805 10.0513 4.44658 10.5498 5.06436 10.5498Z" fill="#ffffff" fill-opacity="0.85"></path>
  </g>
</svg>
