<?xml version="1.0" encoding="UTF-8"?>
<!--Generator: Apple Native CoreSVG 232.5-->
<!DOCTYPE svg
PUBLIC "-//W3C//DTD SVG 1.1//EN"
       "http://www.w3.org/Graphics/SVG/1.1/DTD/svg11.dtd">
<svg version="1.1" xmlns="http://www.w3.org/2000/svg" xmlns:xlink="http://www.w3.org/1999/xlink" viewBox="-4 -4 25 25" >
 <g>
  <rect height="20.4709" opacity="0" width="19.0788" x="0" y="0"/>
  <path d="M9.78262 7.03496L9.78262 9.84756L18.7571 4.93818C18.6924 4.85527 18.6165 4.79258 18.4198 4.67539L10.4627 0.259181C10.2181 0.125391 10.0091 0.0333989 9.78262 0L9.78262 2.7166L9.29844 2.7166L9.29844 0.002051C9.0831 0.0347662 8.86845 0.117677 8.62519 0.259181L0.659673 4.69355C0.472075 4.79258 0.387113 4.85527 0.330765 4.93818L9.29844 9.85254L9.29844 7.03496ZM9.29844 6.29834L9.29844 3.46299L9.78262 3.46299L9.78262 6.29834ZM9.91319 20.1645C9.99971 20.1631 10.0946 20.0975 10.1721 20.0584L18.2182 15.6848C18.4314 15.5726 18.5868 15.4499 18.7108 15.3161L16.3477 14.1027L16.5808 13.6645L18.9846 14.9121C19.0418 14.7168 19.0788 14.5117 19.0788 14.2501L19.0788 6.125C19.0788 5.91377 19.0684 5.80655 19.037 5.71885L10.3025 10.423L12.7396 11.6858L12.5253 12.115L9.91319 10.7649ZM15.7005 13.7613L13.1732 12.4571L13.3972 12.037L15.9148 13.3321ZM9.17471 20.1645L9.17471 10.7468L6.54444 12.115L6.33018 11.6858L8.76719 10.423L0.0508791 5.71885C0.0104493 5.80655 0 5.91377 0 6.125L0 14.2501C0 14.4929 0.0286132 14.7077 0.10332 14.8933L2.48896 13.6645L2.72207 14.1027L0.358889 15.3161C0.482913 15.4499 0.657132 15.5726 0.860649 15.6848L8.90742 20.0584C8.98418 20.0975 9.08818 20.1631 9.17471 20.1645ZM3.36924 13.7613L3.15498 13.3321L5.67324 12.037L5.89658 12.4571Z" fill="#A9BBCA" fill-opacity="0.85"/>
 </g>
   </svg>
