<?xml version="1.0" encoding="UTF-8"?>
<!DOCTYPE svg
PUBLIC "-//W3C//DTD SVG 1.1//EN"
       "http://www.w3.org/Graphics/SVG/1.1/DTD/svg11.dtd">
<svg version="1.1" xmlns="http://www.w3.org/2000/svg" xmlns:xlink="http://www.w3.org/1999/xlink" viewBox="-4 -4 25 25" >
 <g>
  <rect height="20.4548" opacity="0" width="19.0811" x="0" y="0"/>
  <path d="M9.29844 3.00642L9.78262 3.00642L9.78262 0.254669L9.29844 0.254669ZM9.29844 6.58064L9.78262 6.58064L9.78262 3.74754L9.29844 3.74754ZM9.29844 10.0533L9.78262 10.0533L9.78262 7.32244L9.29844 7.32244ZM6.98028 11.8776L9.42432 10.6147L9.20029 10.1946L6.76602 11.4575ZM3.8044 13.5239L6.32705 12.2263L6.09463 11.8061L3.59014 13.1038ZM0.728032 15.125L3.15186 13.8719L2.91875 13.4427L0.504006 14.7049ZM9.66582 10.6147L12.1008 11.8776L12.315 11.4575L9.88077 10.1946ZM12.754 12.2263L15.2773 13.5239L15.5007 13.1038L12.9864 11.8061ZM15.9383 13.8719L18.3621 15.125L18.5771 14.7049L16.163 13.4427ZM0.858598 15.6763L8.92559 20.059C9.34531 20.2806 9.72666 20.2897 10.1652 20.059L18.2225 15.6763C18.8757 15.3228 19.0811 14.9233 19.0811 14.2443L19.0811 5.52C19.0811 5.1492 18.8462 4.87771 18.5254 4.69958L10.4579 0.247048C9.88477-0.0823493 9.19629-0.0823493 8.62314 0.247048L0.565435 4.69958C0.234864 4.87771 0 5.1492 0 5.52L0 14.2443C0 14.9233 0.206057 15.3228 0.858598 15.6763ZM1.31973 15.3862C0.617098 15.0101 0.530769 14.7508 0.530769 14.1864L0.530769 5.67811L9.2916 10.4143L9.2916 19.6732ZM17.7711 15.3862L9.79854 19.6732L9.79854 10.4143L18.5503 5.67811L18.5503 14.1864C18.5503 14.7508 18.464 15.0101 17.7711 15.3862ZM9.54541 9.99167L0.644056 5.18826L9.00498 0.580943C9.34824 0.387387 9.7419 0.386703 10.0768 0.580943L18.4468 5.18826Z" fill="#A9BBCA" fill-opacity="0.85"/>
 </g>

 <g transform="matrix(0.311284, 0, 0, 0.311284, 17.120214, -4)" style="">
       <rect height="18.9326" opacity="0" width="18.9319" x="0" y="0"/>
       <path d="M9.46143 18.9229C14.6745 18.9229 18.9319 14.6648 18.9319 9.46143C18.9319 4.25742 14.6738 0 9.46075 0C4.25742 0 0 4.25742 0 9.46143C0 14.6648 4.25811 18.9229 9.46143 18.9229ZM9.46143 18.4434C4.50694 18.4434 0.480185 14.4159 0.480185 9.46143C0.480185 4.50694 4.50626 0.47042 9.46075 0.47042C14.4152 0.47042 18.4524 4.50694 18.4524 9.46143C18.4524 14.4159 14.4159 18.4434 9.46143 18.4434Z" fill="#A9BBCA" fill-opacity="0.85"/>
       <path d="M13.5614 8.75235C13.6971 8.75235 13.8007 8.64034 13.8007 8.50469L13.8007 5.34239C13.8007 5.20147 13.6978 5.104 13.5623 5.104L10.3923 5.104C10.2566 5.104 10.153 5.2167 10.153 5.35235C10.153 5.47891 10.2566 5.59092 10.3923 5.59092L11.3431 5.57276L13.0188 5.57501L10.1579 8.39209C10.0563 8.49297 10.0557 8.65362 10.1572 8.7461C10.2504 8.85743 10.4097 8.85811 10.5119 8.74542L13.3297 5.8838L13.3229 7.70831L13.3229 8.50469C13.3229 8.64034 13.4349 8.75235 13.5614 8.75235ZM8.53897 13.7748C8.67462 13.7748 8.77755 13.6621 8.77755 13.5356C8.77755 13.3999 8.67462 13.2879 8.53897 13.2879L7.57911 13.3061L5.91241 13.3038L8.77266 10.4867C8.87423 10.3858 8.87491 10.2343 8.77335 10.1327C8.68086 10.0305 8.5209 10.0298 8.41025 10.1334L5.5918 13.0041L5.6084 11.1796L5.6084 10.3741C5.6084 10.2385 5.49571 10.1355 5.36914 10.1355C5.2335 10.1355 5.12148 10.2385 5.12148 10.3741L5.12148 13.5364C5.12148 13.6774 5.23281 13.7748 5.36827 13.7748Z" fill="#A9BBCA" fill-opacity="0.85"/>
      </g>
</svg>
