<?xml version="1.0" encoding="UTF-8"?>
<!DOCTYPE svg PUBLIC "-//W3C//DTD SVG 1.1//EN" "http://www.w3.org/Graphics/SVG/1.1/DTD/svg11.dtd">
<svg xmlns="http://www.w3.org/2000/svg" xmlns:xlink="http://www.w3.org/1999/xlink" version="1.1" viewBox="-4 -4 25 25">
  <defs/>
  <g>
    <rect height="20.4548" opacity="0" width="19.0811" x="0" y="0"/>
    <path d="M0.858598 15.6763L8.92559 20.059C9.34531 20.2806 9.72666 20.2897 10.1652 20.059L18.2225 15.6763C18.8757 15.3228 19.0811 14.9233 19.0811 14.2443L19.0811 5.52C19.0811 5.1492 18.8462 4.87771 18.5254 4.69958L10.4579 0.247048C9.88477-0.0823493 9.19629-0.0823493 8.62314 0.247048L0.565435 4.69958C0.234864 4.87771 0 5.1492 0 5.52L0 14.2443C0 14.9233 0.206057 15.3228 0.858598 15.6763ZM1.31973 15.3862C0.617098 15.0101 0.530769 14.7508 0.530769 14.1864L0.530769 5.67811L9.2916 10.4143L9.2916 19.6732ZM17.7711 15.3862L9.79854 19.6732L9.79854 10.4143L18.5503 5.67811L18.5503 14.1864C18.5503 14.7508 18.464 15.0101 17.7711 15.3862ZM9.54541 9.99167L0.644056 5.18826L9.00498 0.580943C9.34824 0.387387 9.7419 0.386703 10.0768 0.580943L18.4468 5.18826Z" fill="#A9BBCA" fill-opacity="0.85"/>
  </g>
</svg>
