<?xml version="1.0" encoding="UTF-8"?>
<!DOCTYPE svg
PUBLIC "-//W3C//DTD SVG 1.1//EN"
       "http://www.w3.org/Graphics/SVG/1.1/DTD/svg11.dtd">
<svg version="1.1" xmlns="http://www.w3.org/2000/svg" xmlns:xlink="http://www.w3.org/1999/xlink" viewBox="-4 -4 25 25" >
 <g>
  <rect height="20.4548" opacity="0" width="19.0811" x="0" y="0"/>
  <path d="M9.29844 3.00642L9.78262 3.00642L9.78262 0.254669L9.29844 0.254669ZM9.29844 6.58064L9.78262 6.58064L9.78262 3.74754L9.29844 3.74754ZM9.29844 10.0533L9.78262 10.0533L9.78262 7.32244L9.29844 7.32244ZM6.98028 11.8776L9.42432 10.6147L9.20029 10.1946L6.76602 11.4575ZM3.8044 13.5239L6.32705 12.2263L6.09463 11.8061L3.59014 13.1038ZM0.728032 15.125L3.15186 13.8719L2.91875 13.4427L0.504006 14.7049ZM9.66582 10.6147L12.1008 11.8776L12.315 11.4575L9.88077 10.1946ZM12.754 12.2263L15.2773 13.5239L15.5007 13.1038L12.9864 11.8061ZM15.9383 13.8719L18.3621 15.125L18.5771 14.7049L16.163 13.4427ZM0.858598 15.6763L8.92559 20.059C9.34531 20.2806 9.72666 20.2897 10.1652 20.059L18.2225 15.6763C18.8757 15.3228 19.0811 14.9233 19.0811 14.2443L19.0811 5.52C19.0811 5.1492 18.8462 4.87771 18.5254 4.69958L10.4579 0.247048C9.88477-0.0823493 9.19629-0.0823493 8.62314 0.247048L0.565435 4.69958C0.234864 4.87771 0 5.1492 0 5.52L0 14.2443C0 14.9233 0.206057 15.3228 0.858598 15.6763ZM1.31973 15.3862C0.617098 15.0101 0.530769 14.7508 0.530769 14.1864L0.530769 5.67811L9.2916 10.4143L9.2916 19.6732ZM17.7711 15.3862L9.79854 19.6732L9.79854 10.4143L18.5503 5.67811L18.5503 14.1864C18.5503 14.7508 18.464 15.0101 17.7711 15.3862ZM9.54541 9.99167L0.644056 5.18826L9.00498 0.580943C9.34824 0.387387 9.7419 0.386703 10.0768 0.580943L18.4468 5.18826Z" fill="#ffffff" fill-opacity="0.85"/>
 </g>


</svg>
