<?xml version="1.0" encoding="UTF-8"?>
<!DOCTYPE svg PUBLIC "-//W3C//DTD SVG 1.1//EN" "http://www.w3.org/Graphics/SVG/1.1/DTD/svg11.dtd">
<svg xmlns="http://www.w3.org/2000/svg" xmlns:xlink="http://www.w3.org/1999/xlink" version="1.1" viewBox="-2 -2 25 25">
  <g transform="matrix(1, 0, 0, 1, 3, 0)">
    <rect height="20.6008" opacity="0" width="15.5902" x="5" y="0"/>
    <path d="M2.50967 20.6008L13.0806 20.6008C14.7206 20.6008 15.5902 19.7298 15.5902 18.0891L15.5902 8.34092C15.5902 7.68965 15.4619 7.38799 15.0712 6.99589L8.63683 0.55469C8.23976 0.165332 7.93331 0.0356442 7.28457 0.0356442L2.50967 0.0356442C0.89756 0.0356442 0 0.907325 0 2.54805L0 18.0891C0 19.7305 0.86963 20.6008 2.50967 20.6008ZM2.53262 20.1184C1.18165 20.1184 0.48243 19.4178 0.48243 18.0688L0.48243 2.56827C0.48243 1.26544 1.18165 0.518075 2.53331 0.518075L7.56016 0.518075L7.56016 6.80948C7.56016 7.70391 8.00283 8.07325 8.81485 8.07325L15.1078 8.07325L15.1078 18.0688C15.1078 19.4178 14.4086 20.1184 13.0569 20.1184ZM8.83624 7.58857C8.26397 7.58857 8.03575 7.36875 8.03575 6.7874L8.03575 0.648252L14.9776 7.58857Z" fill="#A9BBCA" fill-opacity="0.85"/>
  </g>
</svg>
