<?xml version="1.0" encoding="UTF-8"?>
<!DOCTYPE svg PUBLIC "-//W3C//DTD SVG 1.1//EN" "http://www.w3.org/Graphics/SVG/1.1/DTD/svg11.dtd">
<svg xmlns="http://www.w3.org/2000/svg" xmlns:xlink="http://www.w3.org/1999/xlink" version="1.1" viewBox="-2 -2 25 25">
  <g transform="matrix(1, 0, 0, 1, 3, 0)">
    <rect height="20.6008" opacity="0" width="15.5902" x="5" y="0"/>
    <path d="M2.50967 20.6008L13.0806 20.6008C14.7206 20.6008 15.5902 19.7298 15.5902 18.0891L15.5902 8.21378L8.79239 8.21378C7.86934 8.21378 7.41895 7.74522 7.41895 6.82217L7.41895 0.0356442L2.50967 0.0356442C0.89756 0.0356442 0 0.907325 0 2.54805L0 18.0891C0 19.7305 0.86963 20.6008 2.50967 20.6008ZM8.90342 7.47529L15.4276 7.47529C15.4054 7.31103 15.2312 7.14746 15.0712 6.99589L8.63683 0.55469C8.47755 0.394727 8.31329 0.238671 8.14835 0.20664L8.14835 6.7209C8.14835 7.23594 8.3877 7.47529 8.90342 7.47529Z" fill="#A9BBCA" fill-opacity="0.85"/>
  </g>
</svg>
