<?xml version="1.0" encoding="UTF-8"?>
<!DOCTYPE svg PUBLIC "-//W3C//DTD SVG 1.1//EN" "http://www.w3.org/Graphics/SVG/1.1/DTD/svg11.dtd">
<svg xmlns="http://www.w3.org/2000/svg" xmlns:xlink="http://www.w3.org/1999/xlink" version="1.1" viewBox="-4 -4 25 25">
  <g transform="matrix(1, 0, 0, 1, 3, 0)">
    <rect height="20.6008" opacity="0" width="15.5902" x="0" y="0"/>
    <path d="M2.50967 20.6008L13.0806 20.6008C14.7206 20.6008 15.5902 19.7298 15.5902 18.0891L15.5902 8.34092C15.5902 7.68965 15.4619 7.38799 15.0712 6.99589L8.63683 0.55469C8.23976 0.165332 7.93331 0.0356442 7.28457 0.0356442L2.50967 0.0356442C0.89756 0.0356442 0 0.907325 0 2.54805L0 18.0891C0 19.7305 0.86963 20.6008 2.50967 20.6008ZM2.53262 20.1184C1.18165 20.1184 0.48243 19.4178 0.48243 18.0688L0.48243 2.56827C0.48243 1.26544 1.18165 0.518075 2.53331 0.518075L7.56016 0.518075L7.56016 6.80948C7.56016 7.70391 8.00283 8.07325 8.81485 8.07325L15.1078 8.07325L15.1078 18.0688C15.1078 19.4178 14.4086 20.1184 13.0569 20.1184ZM8.83624 7.58857C8.26397 7.58857 8.03575 7.36875 8.03575 6.7874L8.03575 0.648252L14.9776 7.58857Z" fill="#A9BBCA" fill-opacity="0.85"/>
  </g>
  <g transform="matrix(0.311284, 0, 0, 0.311284, -4, -4)" style="">
    <rect height="18.9326" opacity="0" width="18.9319" x="0" y="0"/>
    <path d="M9.46143 18.9229C14.6745 18.9229 18.9319 14.6648 18.9319 9.46143C18.9319 4.25742 14.6738 0 9.46075 0C4.25742 0 0 4.25742 0 9.46143C0 14.6648 4.25811 18.9229 9.46143 18.9229ZM9.46143 18.4434C4.50694 18.4434 0.480185 14.4159 0.480185 9.46143C0.480185 4.50694 4.50626 0.47042 9.46075 0.47042C14.4152 0.47042 18.4524 4.50694 18.4524 9.46143C18.4524 14.4159 14.4159 18.4434 9.46143 18.4434Z" fill="#A9BBCA" fill-opacity="0.85"/>
    <path d="M13.8578 10.5498C14.484 10.5498 14.9832 10.0513 14.9832 9.4335C14.9832 8.81573 14.484 8.31719 13.8578 8.31719C13.24 8.31719 12.7415 8.81573 12.7415 9.4335C12.7415 10.0513 13.24 10.5498 13.8578 10.5498Z" fill="#A9BBCA" fill-opacity="0.85"/>
    <path d="M9.46075 10.5498C10.0876 10.5498 10.5771 10.0513 10.5771 9.4335C10.5771 8.81573 10.0876 8.31719 9.46075 8.31719C8.84297 8.31719 8.34444 8.81573 8.34444 9.4335C8.34444 10.0513 8.84297 10.5498 9.46075 10.5498Z" fill="#A9BBCA" fill-opacity="0.85"/>
    <path d="M5.06436 10.5498C5.69053 10.5498 6.17999 10.0513 6.17999 9.4335C6.17999 8.81573 5.68985 8.31719 5.06436 8.31719C4.44658 8.31719 3.94805 8.81573 3.94805 9.4335C3.94805 10.0513 4.44658 10.5498 5.06436 10.5498Z" fill="#A9BBCA" fill-opacity="0.85"/>
  </g>
  <g transform="matrix(0.311284, 0, 0, 0.311284, 17.120214, -4)" style="">
    <rect height="18.9326" opacity="0" width="18.9319" x="0" y="0"/>
    <path d="M9.46143 18.9229C14.6745 18.9229 18.9319 14.6648 18.9319 9.46143C18.9319 4.25742 14.6738 0 9.46075 0C4.25742 0 0 4.25742 0 9.46143C0 14.6648 4.25811 18.9229 9.46143 18.9229ZM9.46143 18.4434C4.50694 18.4434 0.480185 14.4159 0.480185 9.46143C0.480185 4.50694 4.50626 0.47042 9.46075 0.47042C14.4152 0.47042 18.4524 4.50694 18.4524 9.46143C18.4524 14.4159 14.4159 18.4434 9.46143 18.4434Z" fill="#A9BBCA" fill-opacity="0.85"/>
    <path d="M13.8578 10.5498C14.484 10.5498 14.9832 10.0513 14.9832 9.4335C14.9832 8.81573 14.484 8.31719 13.8578 8.31719C13.24 8.31719 12.7415 8.81573 12.7415 9.4335C12.7415 10.0513 13.24 10.5498 13.8578 10.5498Z" fill="#A9BBCA" fill-opacity="0.85"/>
    <path d="M9.46075 10.5498C10.0876 10.5498 10.5771 10.0513 10.5771 9.4335C10.5771 8.81573 10.0876 8.31719 9.46075 8.31719C8.84297 8.31719 8.34444 8.81573 8.34444 9.4335C8.34444 10.0513 8.84297 10.5498 9.46075 10.5498Z" fill="#A9BBCA" fill-opacity="0.85"/>
    <path d="M5.06436 10.5498C5.69053 10.5498 6.17999 10.0513 6.17999 9.4335C6.17999 8.81573 5.68985 8.31719 5.06436 8.31719C4.44658 8.31719 3.94805 8.81573 3.94805 9.4335C3.94805 10.0513 4.44658 10.5498 5.06436 10.5498Z" fill="#A9BBCA" fill-opacity="0.85"/>
  </g>
</svg>
