<?xml version="1.0" encoding="UTF-8"?>
<!DOCTYPE svg
PUBLIC "-//W3C//DTD SVG 1.1//EN"
       "http://www.w3.org/Graphics/SVG/1.1/DTD/svg11.dtd">
<svg version="1.1" xmlns="http://www.w3.org/2000/svg" xmlns:xlink="http://www.w3.org/1999/xlink" viewBox="-2 -2 25 25" >
 <g>
  <rect height="25.741" opacity="0" width="22.5551" x="0" y="0"/>
  <path d="M2.50332 22.7324L20.0427 22.7324C21.6848 22.7324 22.5551 21.8349 22.5551 20.2228L22.5551 14.9955C22.5551 14.5155 22.4833 14.3122 22.2437 14.0028L18.0026 8.50625C17.2869 7.58134 16.8108 7.35136 15.5818 7.35136L6.97393 7.35136C5.74424 7.35136 5.25976 7.58134 4.55312 8.50625L0.311428 14.0028C0.0724614 14.3122 0 14.5155 0 14.9955L0 20.2228C0 21.8621 0.870997 22.7324 2.50332 22.7324ZM0.721397 14.2059L5.04121 8.65098C5.51065 8.05459 6.00762 7.81103 6.85674 7.81103L15.6983 7.81103C16.5475 7.81103 17.0354 8.05459 17.5139 8.65098L21.8253 14.2059C21.9616 14.3861 21.9248 14.5269 21.7328 14.5269L14.4223 14.5269C14.1778 14.5269 14.0524 14.6724 14.0524 14.9184L14.0524 14.9937C14.0524 16.617 12.8368 17.8175 11.2775 17.8175C9.71895 17.8175 8.50333 16.617 8.50333 14.9937L8.50333 14.9184C8.50333 14.6724 8.37725 14.5269 8.13282 14.5269L0.823644 14.5269C0.629598 14.5269 0.594832 14.3841 0.721397 14.2059ZM2.53194 22.25C1.18302 22.25 0.48243 21.5501 0.48243 20.1984L0.48243 14.9816L7.99072 14.9816C7.99805 16.9531 9.46768 18.2735 11.2775 18.2735C13.0783 18.2735 14.548 16.9252 14.5553 14.9816L22.0727 14.9816L22.0727 20.1984C22.0727 21.5501 21.326 22.25 20.0231 22.25Z" fill="#ffffff" fill-opacity="0.85"/>
  <path d="M11.2775 13.7014C11.3373 13.7014 11.3943 13.6791 11.4443 13.6291L15.1447 9.91875C15.1913 9.87217 15.2149 9.82422 15.2149 9.76445C15.2149 9.6456 15.1029 9.53496 14.9932 9.53496C14.9341 9.53496 14.8652 9.56767 14.8193 9.61494L12.7998 11.6322L11.5 12.9432L11.5139 11.6055L11.5139 1.7375C11.5139 1.59981 11.4068 1.49414 11.2775 1.49414C11.1482 1.49414 11.0328 1.59981 11.0328 1.7375L11.0328 11.6055L11.046 12.9522L9.73711 11.6322L7.72667 9.61494C7.671 9.56767 7.60215 9.53496 7.54307 9.53496C7.42422 9.53496 7.33106 9.6456 7.33106 9.76445C7.33106 9.82422 7.35469 9.87217 7.40127 9.91875L11.1107 13.6291C11.1517 13.6791 11.2185 13.7014 11.2775 13.7014Z" fill="#ffffff" fill-opacity="0.85"/>
 </g>


</svg>
