<svg viewBox="-4 -4 25 25" xmlns="http://www.w3.org/2000/svg">
  <defs></defs>
  <g transform="matrix(0.560011, 0, 0, 0.560011, -190.139008, -173.051422)" style="">
    <path d="M 348.354 326.666 C 348.087 326.666 347.867 326.456 347.855 326.189 L 347.706 322.981 C 347.703 322.926 347.71 322.871 347.725 322.819 L 349.701 315.978 C 349.943 315.172 350.785 314.708 351.595 314.936 C 351.992 315.046 352.322 315.304 352.522 315.662 C 352.719 316.016 352.766 316.423 352.654 316.81 L 350.678 323.65 C 350.663 323.702 350.639 323.751 350.609 323.796 L 348.767 326.45 C 348.673 326.585 348.519 326.665 348.354 326.666 Z M 348.707 323.017 L 348.784 324.667 L 349.737 323.293 L 351.69 316.532 C 351.727 316.403 351.711 316.265 351.646 316.149 C 351.439 315.788 350.918 315.787 350.709 316.147 C 350.689 316.181 350.673 316.218 350.661 316.256 L 348.707 323.017 Z M 356.018 319.416 C 355.856 319.416 355.704 319.337 355.611 319.205 L 352.016 314.098 C 351.84 313.849 351.747 313.551 351.748 313.246 C 351.748 312.744 352.003 312.274 352.431 311.99 C 353.129 311.531 354.065 311.707 354.548 312.389 L 357.236 316.198 C 357.443 316.523 357.22 316.949 356.835 316.965 C 356.674 316.972 356.519 316.901 356.42 316.774 L 353.73 312.963 C 353.56 312.722 353.23 312.66 352.984 312.823 C 352.84 312.916 352.751 313.074 352.748 313.246 C 352.748 313.349 352.778 313.446 352.836 313.527 L 353.71 314.803 L 356.425 318.626 C 356.649 318.938 356.451 319.375 356.069 319.413 C 356.052 319.415 356.035 319.416 356.018 319.416 Z M 361.748 324.766 C 361.564 324.766 361.395 324.665 361.308 324.502 L 361.308 324.503 C 361.299 324.503 361.028 324.222 360.076 324.102 C 359.94 324.089 359.805 324.063 359.674 324.024 C 359.303 323.922 359.181 323.456 359.455 323.186 C 359.589 323.054 359.785 323.008 359.963 323.067 C 360.029 323.087 360.106 323.101 360.183 323.108 C 360.502 323.148 360.773 323.205 361.001 323.272 C 360.778 322.788 360.412 322.231 359.925 321.646 C 359.687 321.343 359.865 320.897 360.246 320.841 C 360.413 320.817 360.58 320.879 360.692 321.005 C 361.426 321.887 362.292 323.171 362.249 324.285 C 362.239 324.554 362.017 324.767 361.748 324.766 Z M 360.807 319.736 C 360.422 319.735 360.183 319.317 360.376 318.984 C 360.453 318.852 360.587 318.762 360.738 318.741 L 361.941 318.571 L 361.644 316.546 C 361.259 316.542 361.022 316.124 361.218 315.792 C 361.295 315.661 361.428 315.572 361.578 315.551 L 361.998 315.491 C 362.27 315.456 362.52 315.643 362.563 315.914 L 363.003 318.924 C 363.043 319.198 362.852 319.452 362.578 319.491 L 360.878 319.731 C 360.855 319.734 360.831 319.736 360.807 319.736 Z M 352.712 320.892 C 352.327 320.891 352.088 320.473 352.281 320.14 C 352.358 320.008 352.492 319.918 352.643 319.897 L 354.885 319.578 C 355.157 319.545 355.406 319.732 355.45 320.003 C 355.489 320.276 355.298 320.529 355.025 320.568 L 352.783 320.887 C 352.76 320.89 352.736 320.892 352.712 320.892 Z" fill="#A9BBCA"></path>
    <path d="M 352.963 317.778 C 352.578 317.777 352.338 317.36 352.531 317.027 C 352.608 316.895 352.741 316.804 352.893 316.783 L 353.569 316.686 C 353.95 316.631 354.248 317.009 354.104 317.367 C 354.038 317.533 353.888 317.65 353.711 317.676 L 353.035 317.773 C 353.011 317.776 352.987 317.778 352.963 317.778 Z M 346.128 321.829 C 345.881 321.828 345.671 321.647 345.634 321.402 L 345.189 318.386 C 345.149 318.111 345.339 317.856 345.614 317.818 L 347.959 317.484 C 348.339 317.423 348.642 317.797 348.505 318.156 C 348.439 318.329 348.283 318.451 348.099 318.474 L 346.252 318.737 L 346.551 320.763 L 347.031 320.695 C 347.411 320.634 347.714 321.008 347.577 321.367 C 347.511 321.54 347.355 321.662 347.171 321.685 L 346.198 321.824 C 346.175 321.827 346.152 321.829 346.128 321.829 Z M 359.157 327.166 C 358.772 327.165 358.533 326.747 358.726 326.414 C 358.803 326.282 358.937 326.192 359.088 326.171 L 365.03 325.322 L 363.202 312.96 C 363.162 312.686 363.351 312.432 363.624 312.392 C 363.903 312.365 364.151 312.541 364.191 312.814 L 366.091 325.673 C 366.133 325.947 365.942 326.203 365.667 326.241 L 359.227 327.161 C 359.204 327.164 359.181 327.166 359.157 327.166 Z" fill="#A9BBCA"></path>
    <path d="M 345.117 329.156 C 344.87 329.155 344.66 328.974 344.623 328.729 L 342.103 311.639 C 342.063 311.364 342.254 311.11 342.528 311.071 L 354.238 309.411 C 354.618 309.35 354.921 309.724 354.784 310.083 C 354.718 310.256 354.562 310.378 354.378 310.401 L 343.166 311.991 L 345.539 328.091 L 353.037 327.022 C 353.417 326.961 353.72 327.335 353.583 327.694 C 353.517 327.867 353.361 327.989 353.177 328.012 L 345.187 329.152 C 345.164 329.154 345.141 329.155 345.117 329.156 Z" fill="#A9BBCA"></path>
    <path d="M 356.269 330.034 C 355.964 330.029 355.66 329.983 355.367 329.898 C 353.831 329.479 353.904 328.537 354.11 327.607 C 354.176 327.308 354.589 326.116 355.377 323.857 C 356.758 319.888 359.069 313.246 359.2 311.869 C 359.207 311.448 359.228 310.309 358.512 309.432 C 357.935 308.859 357.256 308.746 356.362 308.914 C 356.091 308.966 355.836 309.015 355.599 309.015 C 355.531 309.015 355.364 309.054 355.257 309.09 C 354.843 309.213 354.441 308.866 354.503 308.439 C 354.488 308.417 354.476 308.394 354.466 308.37 C 354.368 308.136 354.436 307.871 354.645 307.662 C 354.739 307.568 354.866 307.516 354.999 307.516 C 355.011 307.51 355.132 307.467 355.172 307.441 C 355.201 307.41 355.237 307.386 355.276 307.37 C 355.735 307.14 356.077 307.032 356.478 306.932 C 357.285 306.662 358.273 306.591 359.454 306.72 C 360.016 306.721 360.779 306.717 361.458 306.943 C 362.074 307.149 362.77 307.381 363.354 307.964 C 363.64 308.251 363.911 308.416 364.098 308.416 C 364.369 308.416 364.448 308.359 364.449 308.358 C 364.542 308.265 364.668 308.213 364.799 308.215 C 364.972 308.215 365.986 308.395 366.252 308.661 C 366.662 309.071 366.373 310.273 366.273 310.573 C 365.818 311.936 365.474 312.216 365.098 312.216 C 364.715 312.216 363.819 311.998 363.482 311.493 C 363.449 311.436 363.33 311.216 362.998 311.216 C 362.933 311.216 362.844 311.267 362.681 311.363 C 362.564 311.434 362.444 311.5 362.322 311.563 C 360.942 312.648 357.973 327.136 357.693 329.086 C 357.686 329.138 357.67 329.19 357.645 329.237 C 357.381 329.768 356.92 330.034 356.269 330.034 Z M 357.098 307.816 C 357.911 307.816 358.616 308.126 359.251 308.762 C 360.235 309.96 360.207 311.376 360.198 311.841 L 360.195 311.962 C 360.063 313.345 358.287 318.533 356.32 324.186 C 355.688 326 355.142 327.569 355.086 327.824 C 354.907 328.628 354.926 328.742 355.63 328.933 C 356.433 329.152 356.637 328.98 356.719 328.849 C 356.961 327.496 359.785 312.281 361.791 310.721 C 361.988 310.612 362.083 310.554 362.17 310.503 C 362.409 310.362 362.655 310.216 362.998 310.216 C 363.707 310.216 364.167 310.635 364.345 310.993 C 364.391 311.036 364.696 311.15 364.932 311.196 C 365.022 311.042 365.166 310.73 365.324 310.258 C 365.441 309.907 365.47 309.547 365.465 309.352 C 365.337 309.324 365.094 309.266 364.931 309.236 C 364.714 309.355 364.436 309.416 364.098 309.416 C 363.629 309.416 363.14 309.165 362.645 308.67 C 362.229 308.254 361.701 308.077 361.142 307.891 C 360.617 307.716 359.969 307.716 359.398 307.716 C 358.427 307.612 357.652 307.647 356.998 307.819 C 357.031 307.817 357.065 307.816 357.098 307.816 Z" style=" paint-order: stroke; stroke-width: 0px;" fill="#A9BBCA"></path>
    <path d="M 354.992 340.323 C 355.026 340.323 355.06 340.309 355.089 340.278 L 357.242 337.967 C 357.268 337.938 357.283 337.908 357.283 337.87 C 357.283 337.797 357.222 337.729 357.158 337.729 C 357.124 337.729 357.084 337.749 357.052 337.778 L 355.879 339.034 L 355.122 339.851 L 355.13 339.017 L 355.13 331.634 C 355.13 331.554 355.067 331.488 354.992 331.488 C 354.911 331.488 354.849 331.554 354.849 331.634 L 354.849 339.017 L 354.857 339.856 L 354.093 339.034 L 352.916 337.778 C 352.889 337.749 352.849 337.729 352.815 337.729 C 352.745 337.729 352.685 337.797 352.685 337.87 C 352.685 337.908 352.699 337.938 352.726 337.967 L 354.889 340.278 C 354.919 340.309 354.958 340.323 354.992 340.323 Z" style="stroke-miterlimit: 11.11; stroke-linecap: square; fill-rule: nonzero; paint-order: stroke; stroke: #A9BBCA; fill: #A9BBCA; stroke-width: 0.5px;"></path>
  </g>
</svg>
