<?xml version="1.0" encoding="UTF-8"?>
<!DOCTYPE svg
PUBLIC "-//W3C//DTD SVG 1.1//EN"
       "http://www.w3.org/Graphics/SVG/1.1/DTD/svg11.dtd">
<svg version="1.1" xmlns="http://www.w3.org/2000/svg" xmlns:xlink="http://www.w3.org/1999/xlink" viewBox="-4 -4 25 25" >
 <g>
  <rect height="25.741" opacity="0" width="22.5551" x="0" y="0"/>
  <path d="M2.50332 22.7324L20.0427 22.7324C21.6848 22.7324 22.5551 21.8349 22.5551 20.2228L22.5551 14.9955C22.5551 14.5155 22.4833 14.3122 22.2437 14.0028L18.0026 8.50625C17.2869 7.58134 16.8108 7.35136 15.5818 7.35136L6.97393 7.35136C5.74424 7.35136 5.25976 7.58134 4.55312 8.50625L0.311428 14.0028C0.0724614 14.3122 0 14.5155 0 14.9955L0 20.2228C0 21.8621 0.870997 22.7324 2.50332 22.7324ZM0.721397 14.2059L5.04121 8.65098C5.51065 8.05459 6.00762 7.81103 6.85674 7.81103L15.6983 7.81103C16.5475 7.81103 17.0354 8.05459 17.5139 8.65098L21.8253 14.2059C21.9616 14.3861 21.9248 14.5269 21.7328 14.5269L14.4223 14.5269C14.1778 14.5269 14.0524 14.6724 14.0524 14.9184L14.0524 14.9937C14.0524 16.617 12.8368 17.8175 11.2775 17.8175C9.71895 17.8175 8.50333 16.617 8.50333 14.9937L8.50333 14.9184C8.50333 14.6724 8.37725 14.5269 8.13282 14.5269L0.823644 14.5269C0.629598 14.5269 0.594832 14.3841 0.721397 14.2059ZM2.53194 22.25C1.18302 22.25 0.48243 21.5501 0.48243 20.1984L0.48243 14.9816L7.99072 14.9816C7.99805 16.9531 9.46768 18.2735 11.2775 18.2735C13.0783 18.2735 14.548 16.9252 14.5553 14.9816L22.0727 14.9816L22.0727 20.1984C22.0727 21.5501 21.326 22.25 20.0231 22.25Z" fill="#A9BBCA" fill-opacity="0.85"/>
  <path d="M11.2775 13.7014C11.3373 13.7014 11.3943 13.6791 11.4443 13.6291L15.1447 9.91875C15.1913 9.87217 15.2149 9.82422 15.2149 9.76445C15.2149 9.6456 15.1029 9.53496 14.9932 9.53496C14.9341 9.53496 14.8652 9.56767 14.8193 9.61494L12.7998 11.6322L11.5 12.9432L11.5139 11.6055L11.5139 1.7375C11.5139 1.59981 11.4068 1.49414 11.2775 1.49414C11.1482 1.49414 11.0328 1.59981 11.0328 1.7375L11.0328 11.6055L11.046 12.9522L9.73711 11.6322L7.72667 9.61494C7.671 9.56767 7.60215 9.53496 7.54307 9.53496C7.42422 9.53496 7.33106 9.6456 7.33106 9.76445C7.33106 9.82422 7.35469 9.87217 7.40127 9.91875L11.1107 13.6291C11.1517 13.6791 11.2185 13.7014 11.2775 13.7014Z" fill="#A9BBCA" fill-opacity="0.85"/>
 </g>
<g transform="matrix(0.311284, 0, 0, 0.311284, -4, -4)" style="">
  <rect height="18.9326" opacity="0" width="18.9319" x="0" y="0"/>
  <path d="M9.46143 18.9229C14.6745 18.9229 18.9319 14.6648 18.9319 9.46143C18.9319 4.25742 14.6738 0 9.46075 0C4.25742 0 0 4.25742 0 9.46143C0 14.6648 4.25811 18.9229 9.46143 18.9229ZM9.46143 18.4434C4.50694 18.4434 0.480185 14.4159 0.480185 9.46143C0.480185 4.50694 4.50626 0.47042 9.46075 0.47042C14.4152 0.47042 18.4524 4.50694 18.4524 9.46143C18.4524 14.4159 14.4159 18.4434 9.46143 18.4434Z" fill="#A9BBCA" fill-opacity="0.85"/>
  <path d="M5.36914 8.75235C5.49571 8.75235 5.6084 8.64034 5.6084 8.50469L5.6084 7.70831L5.5918 5.8838L8.41025 8.74542C8.5209 8.85811 8.68086 8.85743 8.77335 8.7461C8.87491 8.65362 8.87423 8.49297 8.77266 8.39209L5.91241 5.57501L7.57911 5.57276L8.53897 5.59092C8.67462 5.59092 8.77755 5.47891 8.77755 5.35235C8.77755 5.2167 8.67462 5.104 8.53897 5.104L5.36827 5.104C5.23281 5.104 5.12148 5.20147 5.12148 5.34239L5.12148 8.50469C5.12148 8.64034 5.2335 8.75235 5.36914 8.75235ZM10.3923 13.7748L13.5623 13.7748C13.6978 13.7748 13.8007 13.6774 13.8007 13.5364L13.8007 10.3741C13.8007 10.2385 13.6971 10.1355 13.5614 10.1355C13.4349 10.1355 13.3229 10.2385 13.3229 10.3741L13.3229 11.1796L13.3297 13.0041L10.5119 10.1334C10.4097 10.0298 10.2504 10.0305 10.1572 10.1327C10.0557 10.2343 10.0563 10.3858 10.1579 10.4867L13.0188 13.3038L11.3431 13.3061L10.3923 13.2879C10.2566 13.2879 10.153 13.3999 10.153 13.5356C10.153 13.6621 10.2566 13.7748 10.3923 13.7748Z" fill="#A9BBCA" fill-opacity="0.85"/>
 </g>

</svg>
