<?xml version="1.0" encoding="UTF-8"?>
<!DOCTYPE svg
PUBLIC "-//W3C//DTD SVG 1.1//EN"
       "http://www.w3.org/Graphics/SVG/1.1/DTD/svg11.dtd">
<svg version="1.1" xmlns="http://www.w3.org/2000/svg" xmlns:xlink="http://www.w3.org/1999/xlink" viewBox="-4 -4 25 25" >
 <g>
  <rect height="25.741" opacity="0" width="22.5551" x="0" y="0"/>
  <path d="M2.50332 22.7324L20.0427 22.7324C21.6848 22.7324 22.5551 21.8349 22.5551 20.2228L22.5551 14.9955C22.5551 14.5155 22.4833 14.3122 22.2437 14.0028L18.0026 8.50625C17.2869 7.58134 16.8108 7.35136 15.5818 7.35136L6.97393 7.35136C5.74424 7.35136 5.25976 7.58134 4.55312 8.50625L0.311428 14.0028C0.0724614 14.3122 0 14.5155 0 14.9955L0 20.2228C0 21.8621 0.870997 22.7324 2.50332 22.7324ZM0.721397 14.2059L5.04121 8.65098C5.51065 8.05459 6.00762 7.81103 6.85674 7.81103L15.6983 7.81103C16.5475 7.81103 17.0354 8.05459 17.5139 8.65098L21.8253 14.2059C21.9616 14.3861 21.9248 14.5269 21.7328 14.5269L14.4223 14.5269C14.1778 14.5269 14.0524 14.6724 14.0524 14.9184L14.0524 14.9937C14.0524 16.617 12.8368 17.8175 11.2775 17.8175C9.71895 17.8175 8.50333 16.617 8.50333 14.9937L8.50333 14.9184C8.50333 14.6724 8.37725 14.5269 8.13282 14.5269L0.823644 14.5269C0.629598 14.5269 0.594832 14.3841 0.721397 14.2059ZM2.53194 22.25C1.18302 22.25 0.48243 21.5501 0.48243 20.1984L0.48243 14.9816L7.99072 14.9816C7.99805 16.9531 9.46768 18.2735 11.2775 18.2735C13.0783 18.2735 14.548 16.9252 14.5553 14.9816L22.0727 14.9816L22.0727 20.1984C22.0727 21.5501 21.326 22.25 20.0231 22.25Z" fill="#ffffff" fill-opacity="0.85"/>
  <path d="M11.2775 13.7014C11.3373 13.7014 11.3943 13.6791 11.4443 13.6291L15.1447 9.91875C15.1913 9.87217 15.2149 9.82422 15.2149 9.76445C15.2149 9.6456 15.1029 9.53496 14.9932 9.53496C14.9341 9.53496 14.8652 9.56767 14.8193 9.61494L12.7998 11.6322L11.5 12.9432L11.5139 11.6055L11.5139 1.7375C11.5139 1.59981 11.4068 1.49414 11.2775 1.49414C11.1482 1.49414 11.0328 1.59981 11.0328 1.7375L11.0328 11.6055L11.046 12.9522L9.73711 11.6322L7.72667 9.61494C7.671 9.56767 7.60215 9.53496 7.54307 9.53496C7.42422 9.53496 7.33106 9.6456 7.33106 9.76445C7.33106 9.82422 7.35469 9.87217 7.40127 9.91875L11.1107 13.6291C11.1517 13.6791 11.2185 13.7014 11.2775 13.7014Z" fill="#ffffff" fill-opacity="0.85"/>
 </g>

        <g transform="matrix(0.311284, 0, 0, 0.311284, 17.120214, -2)" style="">
          <rect height="18.9326" opacity="0" width="18.9319" x="0" y="0"></rect>
          <path d="M9.46143 18.9229C14.6745 18.9229 18.9319 14.6648 18.9319 9.46143C18.9319 4.25742 14.6738 0 9.46075 0C4.25742 0 0 4.25742 0 9.46143C0 14.6648 4.25811 18.9229 9.46143 18.9229ZM9.46143 18.4434C4.50694 18.4434 0.480185 14.4159 0.480185 9.46143C0.480185 4.50694 4.50626 0.47042 9.46075 0.47042C14.4152 0.47042 18.4524 4.50694 18.4524 9.46143C18.4524 14.4159 14.4159 18.4434 9.46143 18.4434Z" fill="#ffffff" fill-opacity="0.85"></path>
          <path d="M13.8578 10.5498C14.484 10.5498 14.9832 10.0513 14.9832 9.4335C14.9832 8.81573 14.484 8.31719 13.8578 8.31719C13.24 8.31719 12.7415 8.81573 12.7415 9.4335C12.7415 10.0513 13.24 10.5498 13.8578 10.5498Z" fill="#ffffff" fill-opacity="0.85"></path>
          <path d="M9.46075 10.5498C10.0876 10.5498 10.5771 10.0513 10.5771 9.4335C10.5771 8.81573 10.0876 8.31719 9.46075 8.31719C8.84297 8.31719 8.34444 8.81573 8.34444 9.4335C8.34444 10.0513 8.84297 10.5498 9.46075 10.5498Z" fill="#ffffff" fill-opacity="0.85"></path>
          <path d="M5.06436 10.5498C5.69053 10.5498 6.17999 10.0513 6.17999 9.4335C6.17999 8.81573 5.68985 8.31719 5.06436 8.31719C4.44658 8.31719 3.94805 8.81573 3.94805 9.4335C3.94805 10.0513 4.44658 10.5498 5.06436 10.5498Z" fill="#ffffff" fill-opacity="0.85"></path>
        </g>
</svg>
