<?xml version="1.0" encoding="UTF-8"?>
<!--Generator: Apple Native CoreSVG 232.5-->
<!DOCTYPE svg
PUBLIC "-//W3C//DTD SVG 1.1//EN"
       "http://www.w3.org/Graphics/SVG/1.1/DTD/svg11.dtd">
<svg version="1.1" xmlns="http://www.w3.org/2000/svg" xmlns:xlink="http://www.w3.org/1999/xlink" width="21.4702" height="19.5881">
  <g>
    <rect height="17.1262" opacity="0" width="17.0885" x="0" y="0"/>
    <path d="M2.50332 17.1262L14.5761 17.1262C16.2182 17.1262 17.0885 16.2286 17.0885 14.6165L17.0885 2.54737C17.0885 0.935255 16.2182 0.0376952 14.5761 0.0376952L2.50332 0.0376952C0.870997 0.0376952 0 0.907325 0 2.54737L0 14.6165C0 16.2565 0.870997 17.1262 2.50332 17.1262ZM2.53194 16.6437C1.18302 16.6437 0.48243 15.9445 0.48243 14.5929L0.48243 2.571C0.48243 1.21934 1.18302 0.520126 2.53194 0.520126L14.5565 0.520126C15.8594 0.520126 16.6061 1.21934 16.6061 2.571L16.6061 14.5929C16.6061 15.9445 15.8594 16.6437 14.5565 16.6437Z" fill="#ffffff" fill-opacity="0.85"/>
    <path d="M3.30078 8.56797C3.30078 8.71338 3.39258 8.81426 3.53662 8.81426L9.15429 8.81426L10.9875 8.7879L9.18671 10.5827L7.82607 11.9309C7.75293 11.9936 7.7125 12.0681 7.7125 12.1635C7.7125 12.3257 7.81338 12.4168 7.94834 12.4168C8.06826 12.4168 8.13711 12.3289 8.21026 12.2564L11.6786 8.74747C11.7434 8.70157 11.767 8.62637 11.767 8.56797C11.767 8.51026 11.7427 8.43438 11.6786 8.38848L8.16416 4.83203C8.12666 4.78545 8.04238 4.71846 7.95742 4.71846C7.81475 4.71846 7.7125 4.81797 7.7125 4.98018C7.7125 5.07422 7.75293 5.14942 7.82607 5.2044L9.1497 6.5085L10.9868 8.34805L9.15429 8.33213L3.53662 8.33213C3.39258 8.33213 3.30078 8.42393 3.30078 8.56797ZM13.0266 12.4296C13.172 12.4296 13.2638 12.3294 13.2638 12.1938L13.2638 4.94151C13.2638 4.81494 13.172 4.71406 13.0266 4.71406C12.8916 4.71406 12.7907 4.81494 12.7907 4.94151L12.7907 12.1938C12.7907 12.3294 12.8916 12.4296 13.0266 12.4296Z" fill="#ffffff" fill-opacity="0.85"/>
   </g>
   <g transform="matrix(0.311284, 0, 0, 0.311284, 17.120214, -4)" style="">
    <rect height="18.9326" opacity="0" width="18.9319" x="0" y="0"></rect>
    <path d="M9.46143 18.9229C14.6745 18.9229 18.9319 14.6648 18.9319 9.46143C18.9319 4.25742 14.6738 0 9.46075 0C4.25742 0 0 4.25742 0 9.46143C0 14.6648 4.25811 18.9229 9.46143 18.9229ZM9.46143 18.4434C4.50694 18.4434 0.480185 14.4159 0.480185 9.46143C0.480185 4.50694 4.50626 0.47042 9.46075 0.47042C14.4152 0.47042 18.4524 4.50694 18.4524 9.46143C18.4524 14.4159 14.4159 18.4434 9.46143 18.4434Z" fill="#000" fill-opacity="0.85"></path>
    <path d="M13.8578 10.5498C14.484 10.5498 14.9832 10.0513 14.9832 9.4335C14.9832 8.81573 14.484 8.31719 13.8578 8.31719C13.24 8.31719 12.7415 8.81573 12.7415 9.4335C12.7415 10.0513 13.24 10.5498 13.8578 10.5498Z" fill="#000" fill-opacity="0.85"></path>
    <path d="M9.46075 10.5498C10.0876 10.5498 10.5771 10.0513 10.5771 9.4335C10.5771 8.81573 10.0876 8.31719 9.46075 8.31719C8.84297 8.31719 8.34444 8.81573 8.34444 9.4335C8.34444 10.0513 8.84297 10.5498 9.46075 10.5498Z" fill="#000" fill-opacity="0.85"></path>
    <path d="M5.06436 10.5498C5.69053 10.5498 6.17999 10.0513 6.17999 9.4335C6.17999 8.81573 5.68985 8.31719 5.06436 8.31719C4.44658 8.31719 3.94805 8.81573 3.94805 9.4335C3.94805 10.0513 4.44658 10.5498 5.06436 10.5498Z" fill="#000" fill-opacity="0.85"></path>
  </g>
</svg>
