<?xml version="1.0" encoding="UTF-8"?>
<!DOCTYPE svg
PUBLIC "-//W3C//DTD SVG 1.1//EN"
       "http://www.w3.org/Graphics/SVG/1.1/DTD/svg11.dtd">
<svg version="1.1" xmlns="http://www.w3.org/2000/svg" xmlns:xlink="http://www.w3.org/1999/xlink" viewBox="-4 -4 25 25" >
  <g>
    <rect height="17.1262" opacity="0" width="17.0885" x="0" y="0"/>
    <path d="M2.50332 17.1262L14.5761 17.1262C16.2182 17.1262 17.0885 16.2286 17.0885 14.6165L17.0885 2.54737C17.0885 0.935255 16.2182 0.0376952 14.5761 0.0376952L2.50332 0.0376952C0.870997 0.0376952 0 0.907325 0 2.54737L0 14.6165C0 16.2565 0.870997 17.1262 2.50332 17.1262ZM2.53194 16.6437C1.18302 16.6437 0.48243 15.9445 0.48243 14.5929L0.48243 2.571C0.48243 1.21934 1.18302 0.520126 2.53194 0.520126L14.5565 0.520126C15.8594 0.520126 16.6061 1.21934 16.6061 2.571L16.6061 14.5929C16.6061 15.9445 15.8594 16.6437 14.5565 16.6437Z" fill="#ffffff" fill-opacity="0.85"/>
    <path d="M3.30078 8.56797C3.30078 8.71338 3.39258 8.81426 3.53662 8.81426L9.15429 8.81426L10.9875 8.7879L9.18671 10.5827L7.82607 11.9309C7.75293 11.9936 7.7125 12.0681 7.7125 12.1635C7.7125 12.3257 7.81338 12.4168 7.94834 12.4168C8.06826 12.4168 8.13711 12.3289 8.21026 12.2564L11.6786 8.74747C11.7434 8.70157 11.767 8.62637 11.767 8.56797C11.767 8.51026 11.7427 8.43438 11.6786 8.38848L8.16416 4.83203C8.12666 4.78545 8.04238 4.71846 7.95742 4.71846C7.81475 4.71846 7.7125 4.81797 7.7125 4.98018C7.7125 5.07422 7.75293 5.14942 7.82607 5.2044L9.1497 6.5085L10.9868 8.34805L9.15429 8.33213L3.53662 8.33213C3.39258 8.33213 3.30078 8.42393 3.30078 8.56797ZM13.0266 12.4296C13.172 12.4296 13.2638 12.3294 13.2638 12.1938L13.2638 4.94151C13.2638 4.81494 13.172 4.71406 13.0266 4.71406C12.8916 4.71406 12.7907 4.81494 12.7907 4.94151L12.7907 12.1938C12.7907 12.3294 12.8916 12.4296 13.0266 12.4296Z" fill="#ffffff" fill-opacity="0.85"/>
   </g>
   <g transform="matrix(0.311284, 0, 0, 0.311284, -4, -4)" style="">
    <rect height="18.9326" opacity="0" width="18.9319" x="0" y="0"/>
    <path d="M9.46143 18.9229C14.6745 18.9229 18.9319 14.6648 18.9319 9.46143C18.9319 4.25742 14.6738 0 9.46075 0C4.25742 0 0 4.25742 0 9.46143C0 14.6648 4.25811 18.9229 9.46143 18.9229ZM9.46143 18.4434C4.50694 18.4434 0.480185 14.4159 0.480185 9.46143C0.480185 4.50694 4.50626 0.47042 9.46075 0.47042C14.4152 0.47042 18.4524 4.50694 18.4524 9.46143C18.4524 14.4159 14.4159 18.4434 9.46143 18.4434Z" fill="#ffffff" fill-opacity="0.85"/>
    <path d="M5.36914 8.75235C5.49571 8.75235 5.6084 8.64034 5.6084 8.50469L5.6084 7.70831L5.5918 5.8838L8.41025 8.74542C8.5209 8.85811 8.68086 8.85743 8.77335 8.7461C8.87491 8.65362 8.87423 8.49297 8.77266 8.39209L5.91241 5.57501L7.57911 5.57276L8.53897 5.59092C8.67462 5.59092 8.77755 5.47891 8.77755 5.35235C8.77755 5.2167 8.67462 5.104 8.53897 5.104L5.36827 5.104C5.23281 5.104 5.12148 5.20147 5.12148 5.34239L5.12148 8.50469C5.12148 8.64034 5.2335 8.75235 5.36914 8.75235ZM10.3923 13.7748L13.5623 13.7748C13.6978 13.7748 13.8007 13.6774 13.8007 13.5364L13.8007 10.3741C13.8007 10.2385 13.6971 10.1355 13.5614 10.1355C13.4349 10.1355 13.3229 10.2385 13.3229 10.3741L13.3229 11.1796L13.3297 13.0041L10.5119 10.1334C10.4097 10.0298 10.2504 10.0305 10.1572 10.1327C10.0557 10.2343 10.0563 10.3858 10.1579 10.4867L13.0188 13.3038L11.3431 13.3061L10.3923 13.2879C10.2566 13.2879 10.153 13.3999 10.153 13.5356C10.153 13.6621 10.2566 13.7748 10.3923 13.7748Z" fill="#ffffff" fill-opacity="0.85"/>
   </g>
   <g transform="matrix(0.311284, 0, 0, 0.311284, 17.120214, -4)" style="">
    <rect height="18.9326" opacity="0" width="18.9319" x="0" y="0"/>
    <path d="M9.46143 18.9229C14.6745 18.9229 18.9319 14.6648 18.9319 9.46143C18.9319 4.25742 14.6738 0 9.46075 0C4.25742 0 0 4.25742 0 9.46143C0 14.6648 4.25811 18.9229 9.46143 18.9229ZM9.46143 18.4434C4.50694 18.4434 0.480185 14.4159 0.480185 9.46143C0.480185 4.50694 4.50626 0.47042 9.46075 0.47042C14.4152 0.47042 18.4524 4.50694 18.4524 9.46143C18.4524 14.4159 14.4159 18.4434 9.46143 18.4434Z" fill="#ffffff" fill-opacity="0.85"/>
    <path d="M13.5614 8.75235C13.6971 8.75235 13.8007 8.64034 13.8007 8.50469L13.8007 5.34239C13.8007 5.20147 13.6978 5.104 13.5623 5.104L10.3923 5.104C10.2566 5.104 10.153 5.2167 10.153 5.35235C10.153 5.47891 10.2566 5.59092 10.3923 5.59092L11.3431 5.57276L13.0188 5.57501L10.1579 8.39209C10.0563 8.49297 10.0557 8.65362 10.1572 8.7461C10.2504 8.85743 10.4097 8.85811 10.5119 8.74542L13.3297 5.8838L13.3229 7.70831L13.3229 8.50469C13.3229 8.64034 13.4349 8.75235 13.5614 8.75235ZM8.53897 13.7748C8.67462 13.7748 8.77755 13.6621 8.77755 13.5356C8.77755 13.3999 8.67462 13.2879 8.53897 13.2879L7.57911 13.3061L5.91241 13.3038L8.77266 10.4867C8.87423 10.3858 8.87491 10.2343 8.77335 10.1327C8.68086 10.0305 8.5209 10.0298 8.41025 10.1334L5.5918 13.0041L5.6084 11.1796L5.6084 10.3741C5.6084 10.2385 5.49571 10.1355 5.36914 10.1355C5.2335 10.1355 5.12148 10.2385 5.12148 10.3741L5.12148 13.5364C5.12148 13.6774 5.23281 13.7748 5.36827 13.7748Z" fill="#ffffff" fill-opacity="0.85"/>
   </g>
</svg>
