<?xml version="1.0" encoding="UTF-8"?>
<!DOCTYPE svg PUBLIC "-//W3C//DTD SVG 1.1//EN" "http://www.w3.org/Graphics/SVG/1.1/DTD/svg11.dtd">
<svg xmlns="http://www.w3.org/2000/svg" xmlns:xlink="http://www.w3.org/1999/xlink" version="1.1" viewBox="-4 -4 25 25">
  <g transform="matrix(1, 0, 0, 1, 1, 2)" style="">
    <rect height="17.1262" opacity="0" width="17.0885" x="0" y="0"/>
    <path d="M2.50332 17.1262L14.5761 17.1262C16.2182 17.1262 17.0885 16.2286 17.0885 14.6165L17.0885 2.54737C17.0885 0.935255 16.2182 0.0376952 14.5761 0.0376952L2.50332 0.0376952C0.870997 0.0376952 0 0.907325 0 2.54737L0 14.6165C0 16.2565 0.870997 17.1262 2.50332 17.1262ZM2.53194 16.6437C1.18302 16.6437 0.48243 15.9445 0.48243 14.5929L0.48243 2.571C0.48243 1.21934 1.18302 0.520126 2.53194 0.520126L14.5565 0.520126C15.8594 0.520126 16.6061 1.21934 16.6061 2.571L16.6061 14.5929C16.6061 15.9445 15.8594 16.6437 14.5565 16.6437Z" fill="#A9BBCA" fill-opacity="0.85"/>
    <path d="M3.30078 8.56797C3.30078 8.71338 3.39258 8.81426 3.53662 8.81426L9.15429 8.81426L10.9875 8.7879L9.18671 10.5827L7.82607 11.9309C7.75293 11.9936 7.7125 12.0681 7.7125 12.1635C7.7125 12.3257 7.81338 12.4168 7.94834 12.4168C8.06826 12.4168 8.13711 12.3289 8.21026 12.2564L11.6786 8.74747C11.7434 8.70157 11.767 8.62637 11.767 8.56797C11.767 8.51026 11.7427 8.43438 11.6786 8.38848L8.16416 4.83203C8.12666 4.78545 8.04238 4.71846 7.95742 4.71846C7.81475 4.71846 7.7125 4.81797 7.7125 4.98018C7.7125 5.07422 7.75293 5.14942 7.82607 5.2044L9.1497 6.5085L10.9868 8.34805L9.15429 8.33213L3.53662 8.33213C3.39258 8.33213 3.30078 8.42393 3.30078 8.56797ZM13.0266 12.4296C13.172 12.4296 13.2638 12.3294 13.2638 12.1938L13.2638 4.94151C13.2638 4.81494 13.172 4.71406 13.0266 4.71406C12.8916 4.71406 12.7907 4.81494 12.7907 4.94151L12.7907 12.1938C12.7907 12.3294 12.8916 12.4296 13.0266 12.4296Z" fill="#A9BBCA" fill-opacity="0.85"/>
  </g>
</svg>
