<?xml version="1.0" encoding="UTF-8"?>
<!DOCTYPE svg
PUBLIC "-//W3C//DTD SVG 1.1//EN"
       "http://www.w3.org/Graphics/SVG/1.1/DTD/svg11.dtd">
<svg version="1.1" xmlns="http://www.w3.org/2000/svg" xmlns:xlink="http://www.w3.org/1999/xlink" viewBox="-4 -4 25 25" >
 <g>
  <rect height="21.5961" opacity="0" width="18.4946" x="0" y="0"/>
  <path d="M0.252466 16.0104C-0.251245 16.8825 0.0146723 17.7334 0.908324 18.1311L7.93021 21.2503C8.95931 21.7174 9.47982 21.7174 10.629 21.2133L17.5776 18.1311C18.4803 17.7334 18.7462 16.8825 18.2425 16.0104L9.93841 1.63078C9.81029 1.39748 9.54183 1.24602 9.24749 1.24602C8.95247 1.24602 8.68401 1.39748 8.55589 1.63078ZM0.681088 16.2216L8.96204 1.88783C9.01995 1.79154 9.12396 1.69798 9.24749 1.69798C9.37103 1.69798 9.47503 1.77269 9.53226 1.88783L17.8139 16.2216C18.1693 16.8395 17.9542 17.4448 17.3021 17.7339L10.5254 20.7375C9.47093 21.2096 9.03314 21.2096 8.089 20.7934L1.19222 17.7339C0.540757 17.4448 0.325719 16.8395 0.681088 16.2216ZM9.00481 21.4986L9.48949 21.4986L9.48949 1.52249L9.00481 1.52249Z" fill="#ffffff" fill-opacity="0.85"/>
 </g>
<g transform="matrix(0.311284, 0, 0, 0.311284, -4, -4)" style="">
          <rect height="18.9326" opacity="0" width="18.9319" x="0" y="0"></rect>
          <path d="M9.46143 18.9229C14.6745 18.9229 18.9319 14.6648 18.9319 9.46143C18.9319 4.25742 14.6738 0 9.46075 0C4.25742 0 0 4.25742 0 9.46143C0 14.6648 4.25811 18.9229 9.46143 18.9229ZM9.46143 18.4434C4.50694 18.4434 0.480185 14.4159 0.480185 9.46143C0.480185 4.50694 4.50626 0.47042 9.46075 0.47042C14.4152 0.47042 18.4524 4.50694 18.4524 9.46143C18.4524 14.4159 14.4159 18.4434 9.46143 18.4434Z" fill="#ffffff" fill-opacity="0.85"></path>
          <path d="M13.8578 10.5498C14.484 10.5498 14.9832 10.0513 14.9832 9.4335C14.9832 8.81573 14.484 8.31719 13.8578 8.31719C13.24 8.31719 12.7415 8.81573 12.7415 9.4335C12.7415 10.0513 13.24 10.5498 13.8578 10.5498Z" fill="#ffffff" fill-opacity="0.85"></path>
          <path d="M9.46075 10.5498C10.0876 10.5498 10.5771 10.0513 10.5771 9.4335C10.5771 8.81573 10.0876 8.31719 9.46075 8.31719C8.84297 8.31719 8.34444 8.81573 8.34444 9.4335C8.34444 10.0513 8.84297 10.5498 9.46075 10.5498Z" fill="#ffffff" fill-opacity="0.85"></path>
          <path d="M5.06436 10.5498C5.69053 10.5498 6.17999 10.0513 6.17999 9.4335C6.17999 8.81573 5.68985 8.31719 5.06436 8.31719C4.44658 8.31719 3.94805 8.81573 3.94805 9.4335C3.94805 10.0513 4.44658 10.5498 5.06436 10.5498Z" fill="#ffffff" fill-opacity="0.85"></path>
        </g>
        <g transform="matrix(0.311284, 0, 0, 0.311284, 17.120214, -4)" style="">
          <rect height="18.9326" opacity="0" width="18.9319" x="0" y="0"></rect>
          <path d="M9.46143 18.9229C14.6745 18.9229 18.9319 14.6648 18.9319 9.46143C18.9319 4.25742 14.6738 0 9.46075 0C4.25742 0 0 4.25742 0 9.46143C0 14.6648 4.25811 18.9229 9.46143 18.9229ZM9.46143 18.4434C4.50694 18.4434 0.480185 14.4159 0.480185 9.46143C0.480185 4.50694 4.50626 0.47042 9.46075 0.47042C14.4152 0.47042 18.4524 4.50694 18.4524 9.46143C18.4524 14.4159 14.4159 18.4434 9.46143 18.4434Z" fill="#ffffff" fill-opacity="0.85"></path>
          <path d="M13.8578 10.5498C14.484 10.5498 14.9832 10.0513 14.9832 9.4335C14.9832 8.81573 14.484 8.31719 13.8578 8.31719C13.24 8.31719 12.7415 8.81573 12.7415 9.4335C12.7415 10.0513 13.24 10.5498 13.8578 10.5498Z" fill="#ffffff" fill-opacity="0.85"></path>
          <path d="M9.46075 10.5498C10.0876 10.5498 10.5771 10.0513 10.5771 9.4335C10.5771 8.81573 10.0876 8.31719 9.46075 8.31719C8.84297 8.31719 8.34444 8.81573 8.34444 9.4335C8.34444 10.0513 8.84297 10.5498 9.46075 10.5498Z" fill="#ffffff" fill-opacity="0.85"></path>
          <path d="M5.06436 10.5498C5.69053 10.5498 6.17999 10.0513 6.17999 9.4335C6.17999 8.81573 5.68985 8.31719 5.06436 8.31719C4.44658 8.31719 3.94805 8.81573 3.94805 9.4335C3.94805 10.0513 4.44658 10.5498 5.06436 10.5498Z" fill="#ffffff" fill-opacity="0.85"></path>
        </g>
</svg>
