<?xml version="1.0" encoding="UTF-8"?>
<!DOCTYPE svg
PUBLIC "-//W3C//DTD SVG 1.1//EN"
       "http://www.w3.org/Graphics/SVG/1.1/DTD/svg11.dtd">
<svg version="1.1" xmlns="http://www.w3.org/2000/svg" xmlns:xlink="http://www.w3.org/1999/xlink" viewBox="-4 -4 25 25" >
       <g transform="matrix(1, 0, 0, 1, 0, -1)" style="">
              <rect height="21.557" opacity="0" width="18.4854" x="0" y="0"/>
  <path d="M0.247472 15.9853C-0.249402 16.8625 0.0158312 17.7098 0.91827 18.1174L7.93644 21.2361C8.34543 21.426 8.67131 21.5327 8.99718 21.5557L8.99718 1.26172C8.80871 1.33008 8.64679 1.44726 8.55051 1.61123ZM18.2361 15.9775L9.93303 1.61259C9.83606 1.44863 9.67483 1.32236 9.48635 1.26308L9.48635 21.557C9.81223 21.5062 10.1654 21.3994 10.6113 21.2005L17.5737 18.1097C18.4761 17.7111 18.7323 16.8548 18.2361 15.9775Z" fill="#A9BBCA" fill-opacity="0.85"/>
 </g>

        <g transform="matrix(0.311284, 0, 0, 0.311284, 17.120214, -4)" style="">
  <rect height="18.9326" opacity="0" width="18.9319" x="0" y="0"/>
  <path d="M9.46143 18.9229C14.6745 18.9229 18.9319 14.6648 18.9319 9.46143C18.9319 4.25742 14.6738 0 9.46075 0C4.25742 0 0 4.25742 0 9.46143C0 14.6648 4.25811 18.9229 9.46143 18.9229ZM9.46143 18.4434C4.50694 18.4434 0.480185 14.4159 0.480185 9.46143C0.480185 4.50694 4.50626 0.47042 9.46075 0.47042C14.4152 0.47042 18.4524 4.50694 18.4524 9.46143C18.4524 14.4159 14.4159 18.4434 9.46143 18.4434Z" fill="#A9BBCA" fill-opacity="0.85"/>
  <path d="M13.5614 8.75235C13.6971 8.75235 13.8007 8.64034 13.8007 8.50469L13.8007 5.34239C13.8007 5.20147 13.6978 5.104 13.5623 5.104L10.3923 5.104C10.2566 5.104 10.153 5.2167 10.153 5.35235C10.153 5.47891 10.2566 5.59092 10.3923 5.59092L11.3431 5.57276L13.0188 5.57501L10.1579 8.39209C10.0563 8.49297 10.0557 8.65362 10.1572 8.7461C10.2504 8.85743 10.4097 8.85811 10.5119 8.74542L13.3297 5.8838L13.3229 7.70831L13.3229 8.50469C13.3229 8.64034 13.4349 8.75235 13.5614 8.75235ZM8.53897 13.7748C8.67462 13.7748 8.77755 13.6621 8.77755 13.5356C8.77755 13.3999 8.67462 13.2879 8.53897 13.2879L7.57911 13.3061L5.91241 13.3038L8.77266 10.4867C8.87423 10.3858 8.87491 10.2343 8.77335 10.1327C8.68086 10.0305 8.5209 10.0298 8.41025 10.1334L5.5918 13.0041L5.6084 11.1796L5.6084 10.3741C5.6084 10.2385 5.49571 10.1355 5.36914 10.1355C5.2335 10.1355 5.12148 10.2385 5.12148 10.3741L5.12148 13.5364C5.12148 13.6774 5.23281 13.7748 5.36827 13.7748Z" fill="#A9BBCA" fill-opacity="0.85"/>
 </g>
</svg>
