<?xml version="1.0" encoding="UTF-8"?>
<!DOCTYPE svg
PUBLIC "-//W3C//DTD SVG 1.1//EN"
       "http://www.w3.org/Graphics/SVG/1.1/DTD/svg11.dtd">
<svg version="1.1" xmlns="http://www.w3.org/2000/svg" xmlns:xlink="http://www.w3.org/1999/xlink" viewBox="-2 -2 25 25" >
 <g>
  <rect height="21.5961" opacity="0" width="18.4946" x="0" y="0"/>
  <path d="M0.252466 16.0104C-0.251245 16.8825 0.0146723 17.7334 0.908324 18.1311L7.93021 21.2503C8.95931 21.7174 9.47982 21.7174 10.629 21.2133L17.5776 18.1311C18.4803 17.7334 18.7462 16.8825 18.2425 16.0104L9.93841 1.63078C9.81029 1.39748 9.54183 1.24602 9.24749 1.24602C8.95247 1.24602 8.68401 1.39748 8.55589 1.63078ZM0.681088 16.2216L8.96204 1.88783C9.01995 1.79154 9.12396 1.69798 9.24749 1.69798C9.37103 1.69798 9.47503 1.77269 9.53226 1.88783L17.8139 16.2216C18.1693 16.8395 17.9542 17.4448 17.3021 17.7339L10.5254 20.7375C9.47093 21.2096 9.03314 21.2096 8.089 20.7934L1.19222 17.7339C0.540757 17.4448 0.325719 16.8395 0.681088 16.2216ZM9.00481 21.4986L9.48949 21.4986L9.48949 1.52249L9.00481 1.52249Z" fill="#ffffff" fill-opacity="0.85"/>
 </g>


</svg>
