<?xml version="1.0" encoding="UTF-8"?>
<!DOCTYPE svg PUBLIC "-//W3C//DTD SVG 1.1//EN" "http://www.w3.org/Graphics/SVG/1.1/DTD/svg11.dtd">
<svg xmlns="http://www.w3.org/2000/svg" xmlns:xlink="http://www.w3.org/1999/xlink" version="1.1" viewBox="-4 -4 25 25">
  <g transform="matrix(1, 0, 0, 1, 0, -1)" style="">
    <rect height="21.557" opacity="0" width="18.4854" x="0" y="0"/>
    <path d="M0.247472 15.9853C-0.249402 16.8625 0.0158312 17.7098 0.91827 18.1174L7.93644 21.2361C8.34543 21.426 8.67131 21.5327 8.99718 21.5557L8.99718 1.26172C8.80871 1.33008 8.64679 1.44726 8.55051 1.61123ZM18.2361 15.9775L9.93303 1.61259C9.83606 1.44863 9.67483 1.32236 9.48635 1.26308L9.48635 21.557C9.81223 21.5062 10.1654 21.3994 10.6113 21.2005L17.5737 18.1097C18.4761 17.7111 18.7323 16.8548 18.2361 15.9775Z" fill="#A9BBCA" fill-opacity="0.85"/>
  </g>
</svg>
