<?xml version="1.0" encoding="UTF-8"?>
<!DOCTYPE svg PUBLIC "-//W3C//DTD SVG 1.1//EN" "http://www.w3.org/Graphics/SVG/1.1/DTD/svg11.dtd">
<svg xmlns="http://www.w3.org/2000/svg" xmlns:xlink="http://www.w3.org/1999/xlink" version="1.1" viewBox="-4 -4 25 25">
  <g transform="matrix(1, 0, 0, 1, 0, -1)" style="">
    <rect height="21.5961" opacity="0" width="18.4946" x="0" y="0"/>
    <path d="M0.252466 16.0104C-0.251245 16.8825 0.0146723 17.7334 0.908324 18.1311L7.93021 21.2503C8.95931 21.7174 9.47982 21.7174 10.629 21.2133L17.5776 18.1311C18.4803 17.7334 18.7462 16.8825 18.2425 16.0104L9.93841 1.63078C9.81029 1.39748 9.54183 1.24602 9.24749 1.24602C8.95247 1.24602 8.68401 1.39748 8.55589 1.63078ZM0.681088 16.2216L8.96204 1.88783C9.01995 1.79154 9.12396 1.69798 9.24749 1.69798C9.37103 1.69798 9.47503 1.77269 9.53226 1.88783L17.8139 16.2216C18.1693 16.8395 17.9542 17.4448 17.3021 17.7339L10.5254 20.7375C9.47093 21.2096 9.03314 21.2096 8.089 20.7934L1.19222 17.7339C0.540757 17.4448 0.325719 16.8395 0.681088 16.2216ZM9.00481 21.4986L9.48949 21.4986L9.48949 1.52249L9.00481 1.52249Z" fill="#A9BBCA" fill-opacity="0.85"/>
  </g>
  <g transform="matrix(0.311284, 0, 0, 0.311284, -4, -4)" style="">
    <rect height="18.9326" opacity="0" width="18.9319" x="0" y="0"/>
    <path d="M9.46143 18.9229C14.6745 18.9229 18.9319 14.6648 18.9319 9.46143C18.9319 4.25742 14.6738 0 9.46075 0C4.25742 0 0 4.25742 0 9.46143C0 14.6648 4.25811 18.9229 9.46143 18.9229ZM9.46143 18.4434C4.50694 18.4434 0.480185 14.4159 0.480185 9.46143C0.480185 4.50694 4.50626 0.47042 9.46075 0.47042C14.4152 0.47042 18.4524 4.50694 18.4524 9.46143C18.4524 14.4159 14.4159 18.4434 9.46143 18.4434Z" fill="#A9BBCA" fill-opacity="0.85"/>
    <path d="M5.36914 8.75235C5.49571 8.75235 5.6084 8.64034 5.6084 8.50469L5.6084 7.70831L5.5918 5.8838L8.41025 8.74542C8.5209 8.85811 8.68086 8.85743 8.77335 8.7461C8.87491 8.65362 8.87423 8.49297 8.77266 8.39209L5.91241 5.57501L7.57911 5.57276L8.53897 5.59092C8.67462 5.59092 8.77755 5.47891 8.77755 5.35235C8.77755 5.2167 8.67462 5.104 8.53897 5.104L5.36827 5.104C5.23281 5.104 5.12148 5.20147 5.12148 5.34239L5.12148 8.50469C5.12148 8.64034 5.2335 8.75235 5.36914 8.75235ZM10.3923 13.7748L13.5623 13.7748C13.6978 13.7748 13.8007 13.6774 13.8007 13.5364L13.8007 10.3741C13.8007 10.2385 13.6971 10.1355 13.5614 10.1355C13.4349 10.1355 13.3229 10.2385 13.3229 10.3741L13.3229 11.1796L13.3297 13.0041L10.5119 10.1334C10.4097 10.0298 10.2504 10.0305 10.1572 10.1327C10.0557 10.2343 10.0563 10.3858 10.1579 10.4867L13.0188 13.3038L11.3431 13.3061L10.3923 13.2879C10.2566 13.2879 10.153 13.3999 10.153 13.5356C10.153 13.6621 10.2566 13.7748 10.3923 13.7748Z" fill="#A9BBCA" fill-opacity="0.85"/>
  </g>
</svg>
