<?xml version="1.0" encoding="UTF-8"?>
<!DOCTYPE svg
PUBLIC "-//W3C//DTD SVG 1.1//EN"
       "http://www.w3.org/Graphics/SVG/1.1/DTD/svg11.dtd">
<svg version="1.1" xmlns="http://www.w3.org/2000/svg" xmlns:xlink="http://www.w3.org/1999/xlink" viewBox="-4 -4 25 25" >
 <g>
  <rect height="16.8678" opacity="0" width="16.8272" x="0" y="0"/>
  <path d="M0.997267 1.04473C0.276366 1.76563 0 2.73047 0 4.5668L0 4.97324L0.48243 4.97324L0.48243 4.5627C0.48243 3.01055 0.745613 2.00128 1.34063 1.38809C1.9545 0.765144 2.98262 0.511044 4.52569 0.511044L5.05566 0.511044L5.05566 0.0376952L4.52979 0.0376952C2.70254 0.0376952 1.70977 0.323144 0.997267 1.04473ZM5.79415 0.511044L11.033 0.511044L11.033 0.0376952L5.79415 0.0376952ZM15.8481 1.02656C15.1174 0.314062 14.1519 0.0376952 12.1773 0.0376952L11.7708 0.0376952L11.7708 0.511044L12.4307 0.511044C13.8725 0.511044 14.8636 0.793074 15.4768 1.40626C16.0906 2.01104 16.3538 2.98262 16.3538 4.44258L16.3538 4.97324L16.8272 4.97324L16.8272 4.68692C16.8272 2.70254 16.569 1.7377 15.8481 1.02656ZM16.3538 11.2028L16.8272 11.2028L16.8272 5.70264L16.3538 5.70264ZM15.8481 15.8789C16.569 15.158 16.8272 14.2029 16.8272 12.2186L16.8272 11.9322L16.3538 11.9322L16.3538 12.4622C16.3538 13.9229 16.0725 14.8944 15.4768 15.4992C14.8636 16.1215 13.8725 16.3944 12.4307 16.3944L11.7708 16.3944L11.7708 16.8678L12.1773 16.8678C14.1519 16.8678 15.1265 16.5914 15.8481 15.8789ZM5.79415 16.8678L11.033 16.8678L11.033 16.3944L5.79415 16.3944ZM0.979103 15.8789C1.70977 16.5914 2.6753 16.8678 4.6583 16.8678L5.05566 16.8678L5.05566 16.3944L4.40557 16.3944C2.96378 16.3944 1.96358 16.1124 1.34971 15.4992C0.745613 14.8944 0.48243 13.9229 0.48243 12.4622L0.48243 11.9322L0 11.9322L0 12.2186C0 14.2029 0.267285 15.1671 0.979103 15.8789ZM0 11.2028L0.48243 11.2028L0.48243 5.70264L0 5.70264Z" fill="#A9BBCA" fill-opacity="0.85"/>
  <path d="M8.25528 10.3597C8.39844 10.3597 8.49161 10.247 8.49161 10.0932C8.49161 9.96328 8.49161 9.85088 8.49161 9.72168C8.49161 9.09307 8.75938 8.71426 9.56036 8.16514C10.5894 7.44932 10.9453 6.87383 10.9453 6.01075C10.9453 4.871 9.91846 4.00117 8.43995 4.00117C6.96006 4.00117 6.02002 4.91094 5.91006 5.9456C5.89756 6.06553 5.89551 6.14912 5.89551 6.28789C5.89551 6.45488 5.99209 6.55303 6.14248 6.55303C6.28379 6.55303 6.39805 6.46035 6.3922 6.3168L6.38634 6.20957C6.38302 5.35254 7.22755 4.46651 8.417 4.46651C9.65987 4.46651 10.4365 5.1378 10.4365 6.04346C10.4365 6.71661 10.1074 7.1751 9.13975 7.84346C8.30039 8.43164 8.00078 8.93106 8.00078 9.68828C8.00078 9.82725 8.00078 9.95781 8.00078 10.0968C8.00078 10.2504 8.11074 10.3597 8.25528 10.3597ZM8.24414 12.8975C8.59258 12.8975 8.8629 12.5936 8.8629 12.2815C8.8629 11.9421 8.59327 11.6654 8.24414 11.6654C7.89502 11.6654 7.62539 11.9428 7.62539 12.2815C7.62539 12.602 7.89571 12.8975 8.24414 12.8975Z" fill="#A9BBCA" fill-opacity="0.85"/>
 </g>
<g transform="matrix(0.311284, 0, 0, 0.311284, -4, -4)" style="">
  <rect height="18.9326" opacity="0" width="18.9319" x="0" y="0"/>
  <path d="M9.46143 18.9229C14.6745 18.9229 18.9319 14.6648 18.9319 9.46143C18.9319 4.25742 14.6738 0 9.46075 0C4.25742 0 0 4.25742 0 9.46143C0 14.6648 4.25811 18.9229 9.46143 18.9229ZM9.46143 18.4434C4.50694 18.4434 0.480185 14.4159 0.480185 9.46143C0.480185 4.50694 4.50626 0.47042 9.46075 0.47042C14.4152 0.47042 18.4524 4.50694 18.4524 9.46143C18.4524 14.4159 14.4159 18.4434 9.46143 18.4434Z" fill="#A9BBCA" fill-opacity="0.85"/>
  <path d="M5.36914 8.75235C5.49571 8.75235 5.6084 8.64034 5.6084 8.50469L5.6084 7.70831L5.5918 5.8838L8.41025 8.74542C8.5209 8.85811 8.68086 8.85743 8.77335 8.7461C8.87491 8.65362 8.87423 8.49297 8.77266 8.39209L5.91241 5.57501L7.57911 5.57276L8.53897 5.59092C8.67462 5.59092 8.77755 5.47891 8.77755 5.35235C8.77755 5.2167 8.67462 5.104 8.53897 5.104L5.36827 5.104C5.23281 5.104 5.12148 5.20147 5.12148 5.34239L5.12148 8.50469C5.12148 8.64034 5.2335 8.75235 5.36914 8.75235ZM10.3923 13.7748L13.5623 13.7748C13.6978 13.7748 13.8007 13.6774 13.8007 13.5364L13.8007 10.3741C13.8007 10.2385 13.6971 10.1355 13.5614 10.1355C13.4349 10.1355 13.3229 10.2385 13.3229 10.3741L13.3229 11.1796L13.3297 13.0041L10.5119 10.1334C10.4097 10.0298 10.2504 10.0305 10.1572 10.1327C10.0557 10.2343 10.0563 10.3858 10.1579 10.4867L13.0188 13.3038L11.3431 13.3061L10.3923 13.2879C10.2566 13.2879 10.153 13.3999 10.153 13.5356C10.153 13.6621 10.2566 13.7748 10.3923 13.7748Z" fill="#A9BBCA" fill-opacity="0.85"/>
 </g>
        <g transform="matrix(0.311284, 0, 0, 0.311284, 17.120214, -4)" style="">
  <rect height="18.9326" opacity="0" width="18.9319" x="0" y="0"/>
  <path d="M9.46143 18.9229C14.6745 18.9229 18.9319 14.6648 18.9319 9.46143C18.9319 4.25742 14.6738 0 9.46075 0C4.25742 0 0 4.25742 0 9.46143C0 14.6648 4.25811 18.9229 9.46143 18.9229ZM9.46143 18.4434C4.50694 18.4434 0.480185 14.4159 0.480185 9.46143C0.480185 4.50694 4.50626 0.47042 9.46075 0.47042C14.4152 0.47042 18.4524 4.50694 18.4524 9.46143C18.4524 14.4159 14.4159 18.4434 9.46143 18.4434Z" fill="#A9BBCA" fill-opacity="0.85"/>
  <path d="M13.5614 8.75235C13.6971 8.75235 13.8007 8.64034 13.8007 8.50469L13.8007 5.34239C13.8007 5.20147 13.6978 5.104 13.5623 5.104L10.3923 5.104C10.2566 5.104 10.153 5.2167 10.153 5.35235C10.153 5.47891 10.2566 5.59092 10.3923 5.59092L11.3431 5.57276L13.0188 5.57501L10.1579 8.39209C10.0563 8.49297 10.0557 8.65362 10.1572 8.7461C10.2504 8.85743 10.4097 8.85811 10.5119 8.74542L13.3297 5.8838L13.3229 7.70831L13.3229 8.50469C13.3229 8.64034 13.4349 8.75235 13.5614 8.75235ZM8.53897 13.7748C8.67462 13.7748 8.77755 13.6621 8.77755 13.5356C8.77755 13.3999 8.67462 13.2879 8.53897 13.2879L7.57911 13.3061L5.91241 13.3038L8.77266 10.4867C8.87423 10.3858 8.87491 10.2343 8.77335 10.1327C8.68086 10.0305 8.5209 10.0298 8.41025 10.1334L5.5918 13.0041L5.6084 11.1796L5.6084 10.3741C5.6084 10.2385 5.49571 10.1355 5.36914 10.1355C5.2335 10.1355 5.12148 10.2385 5.12148 10.3741L5.12148 13.5364C5.12148 13.6774 5.23281 13.7748 5.36827 13.7748Z" fill="#A9BBCA" fill-opacity="0.85"/>
 </g>
</svg>
