<?xml version="1.0" encoding="UTF-8"?>
<!DOCTYPE svg
PUBLIC "-//W3C//DTD SVG 1.1//EN"
       "http://www.w3.org/Graphics/SVG/1.1/DTD/svg11.dtd">
<svg version="1.1" xmlns="http://www.w3.org/2000/svg" xmlns:xlink="http://www.w3.org/1999/xlink" viewBox="-4 -4 25 25" >
 <g>
  <rect height="16.8678" opacity="0" width="16.8272" x="0" y="0"/>
  <path d="M0.997267 1.04473C0.276366 1.76563 0 2.73047 0 4.5668L0 4.97324L0.48243 4.97324L0.48243 4.5627C0.48243 3.01055 0.745613 2.00128 1.34063 1.38809C1.9545 0.765144 2.98262 0.511044 4.52569 0.511044L5.05566 0.511044L5.05566 0.0376952L4.52979 0.0376952C2.70254 0.0376952 1.70977 0.323144 0.997267 1.04473ZM5.79415 0.511044L11.033 0.511044L11.033 0.0376952L5.79415 0.0376952ZM15.8481 1.02656C15.1174 0.314062 14.1519 0.0376952 12.1773 0.0376952L11.7708 0.0376952L11.7708 0.511044L12.4307 0.511044C13.8725 0.511044 14.8636 0.793074 15.4768 1.40626C16.0906 2.01104 16.3538 2.98262 16.3538 4.44258L16.3538 4.97324L16.8272 4.97324L16.8272 4.68692C16.8272 2.70254 16.569 1.7377 15.8481 1.02656ZM16.3538 11.2028L16.8272 11.2028L16.8272 5.70264L16.3538 5.70264ZM15.8481 15.8789C16.569 15.158 16.8272 14.2029 16.8272 12.2186L16.8272 11.9322L16.3538 11.9322L16.3538 12.4622C16.3538 13.9229 16.0725 14.8944 15.4768 15.4992C14.8636 16.1215 13.8725 16.3944 12.4307 16.3944L11.7708 16.3944L11.7708 16.8678L12.1773 16.8678C14.1519 16.8678 15.1265 16.5914 15.8481 15.8789ZM5.79415 16.8678L11.033 16.8678L11.033 16.3944L5.79415 16.3944ZM0.979103 15.8789C1.70977 16.5914 2.6753 16.8678 4.6583 16.8678L5.05566 16.8678L5.05566 16.3944L4.40557 16.3944C2.96378 16.3944 1.96358 16.1124 1.34971 15.4992C0.745613 14.8944 0.48243 13.9229 0.48243 12.4622L0.48243 11.9322L0 11.9322L0 12.2186C0 14.2029 0.267285 15.1671 0.979103 15.8789ZM0 11.2028L0.48243 11.2028L0.48243 5.70264L0 5.70264Z" fill="#ffffff" fill-opacity="0.85"/>
  <path d="M8.25528 10.3597C8.39844 10.3597 8.49161 10.247 8.49161 10.0932C8.49161 9.96328 8.49161 9.85088 8.49161 9.72168C8.49161 9.09307 8.75938 8.71426 9.56036 8.16514C10.5894 7.44932 10.9453 6.87383 10.9453 6.01075C10.9453 4.871 9.91846 4.00117 8.43995 4.00117C6.96006 4.00117 6.02002 4.91094 5.91006 5.9456C5.89756 6.06553 5.89551 6.14912 5.89551 6.28789C5.89551 6.45488 5.99209 6.55303 6.14248 6.55303C6.28379 6.55303 6.39805 6.46035 6.3922 6.3168L6.38634 6.20957C6.38302 5.35254 7.22755 4.46651 8.417 4.46651C9.65987 4.46651 10.4365 5.1378 10.4365 6.04346C10.4365 6.71661 10.1074 7.1751 9.13975 7.84346C8.30039 8.43164 8.00078 8.93106 8.00078 9.68828C8.00078 9.82725 8.00078 9.95781 8.00078 10.0968C8.00078 10.2504 8.11074 10.3597 8.25528 10.3597ZM8.24414 12.8975C8.59258 12.8975 8.8629 12.5936 8.8629 12.2815C8.8629 11.9421 8.59327 11.6654 8.24414 11.6654C7.89502 11.6654 7.62539 11.9428 7.62539 12.2815C7.62539 12.602 7.89571 12.8975 8.24414 12.8975Z" fill="#ffffff" fill-opacity="0.85"/>
 </g>

<g transform="matrix(0.311284, 0, 0, 0.311284, -4, -4)" style="">
          <rect height="18.9326" opacity="0" width="18.9319" x="0" y="0"></rect>
          <path d="M9.46143 18.9229C14.6745 18.9229 18.9319 14.6648 18.9319 9.46143C18.9319 4.25742 14.6738 0 9.46075 0C4.25742 0 0 4.25742 0 9.46143C0 14.6648 4.25811 18.9229 9.46143 18.9229ZM9.46143 18.4434C4.50694 18.4434 0.480185 14.4159 0.480185 9.46143C0.480185 4.50694 4.50626 0.47042 9.46075 0.47042C14.4152 0.47042 18.4524 4.50694 18.4524 9.46143C18.4524 14.4159 14.4159 18.4434 9.46143 18.4434Z" fill="#ffffff" fill-opacity="0.85"></path>
          <path d="M13.8578 10.5498C14.484 10.5498 14.9832 10.0513 14.9832 9.4335C14.9832 8.81573 14.484 8.31719 13.8578 8.31719C13.24 8.31719 12.7415 8.81573 12.7415 9.4335C12.7415 10.0513 13.24 10.5498 13.8578 10.5498Z" fill="#ffffff" fill-opacity="0.85"></path>
          <path d="M9.46075 10.5498C10.0876 10.5498 10.5771 10.0513 10.5771 9.4335C10.5771 8.81573 10.0876 8.31719 9.46075 8.31719C8.84297 8.31719 8.34444 8.81573 8.34444 9.4335C8.34444 10.0513 8.84297 10.5498 9.46075 10.5498Z" fill="#ffffff" fill-opacity="0.85"></path>
          <path d="M5.06436 10.5498C5.69053 10.5498 6.17999 10.0513 6.17999 9.4335C6.17999 8.81573 5.68985 8.31719 5.06436 8.31719C4.44658 8.31719 3.94805 8.81573 3.94805 9.4335C3.94805 10.0513 4.44658 10.5498 5.06436 10.5498Z" fill="#ffffff" fill-opacity="0.85"></path>
        </g>
</svg>
