<?xml version="1.0" encoding="UTF-8"?>
<!DOCTYPE svg
PUBLIC "-//W3C//DTD SVG 1.1//EN"
       "http://www.w3.org/Graphics/SVG/1.1/DTD/svg11.dtd">
<svg version="1.1" xmlns="http://www.w3.org/2000/svg" xmlns:xlink="http://www.w3.org/1999/xlink" viewBox="-4 -4 25 25" >
   <g>
    <rect height="22.452" opacity="0" width="22.4331" x="0" y="0"/>
    <path d="M11.2211 20.2149C16.163 20.2149 20.1856 16.1825 20.1856 11.2309C20.1856 6.28829 16.163 2.24688 11.2211 2.24688C6.27012 2.24688 2.24756 6.28829 2.24756 11.2309C2.24756 16.1825 6.27012 20.2149 11.2211 20.2149ZM11.2211 19.7583C6.5378 19.7583 2.69845 15.926 2.69845 11.2309C2.69845 6.53575 6.5378 2.70343 11.2211 2.70343C15.9044 2.70343 19.7347 6.53575 19.7347 11.2309C19.7347 15.926 15.9044 19.7583 11.2211 19.7583ZM11.2029 22.452C11.3665 22.452 11.4604 22.3302 11.4604 22.1939L11.4604 15.8459C11.4604 15.7096 11.3665 15.5885 11.2029 15.5885C11.0757 15.5885 10.9812 15.7096 10.9812 15.8459L10.9812 22.1939C10.9812 22.3302 11.0757 22.452 11.2029 22.452ZM0.258109 11.4708L6.60606 11.4708C6.74239 11.4708 6.86417 11.3763 6.86417 11.249C6.86417 11.0855 6.74239 10.9916 6.60606 10.9916L0.258109 10.9916C0.121779 10.9916 0 11.0855 0 11.249C0 11.3763 0.121779 11.4708 0.258109 11.4708ZM11.2029 6.87393C11.3665 6.87393 11.4604 6.75216 11.4604 6.61583L11.4604 0.267875C11.4604 0.131544 11.3665 0.00976562 11.2029 0.00976562C11.0757 0.00976562 10.9812 0.131544 10.9812 0.267875L10.9812 6.61583C10.9812 6.75216 11.0757 6.87393 11.2029 6.87393ZM15.8271 11.4708L22.1841 11.4708C22.3204 11.4708 22.4331 11.3763 22.4331 11.249C22.4331 11.0855 22.3204 10.9916 22.1841 10.9916L15.8271 10.9916C15.6998 10.9916 15.578 11.0855 15.578 11.249C15.578 11.3763 15.6998 11.4708 15.8271 11.4708Z" fill="#ffffff" fill-opacity="0.85"/>
   </g>
        <g transform="matrix(0.311284, 0, 0, 0.311284, 17.120214, -4)" style="">
          <rect height="18.9326" opacity="0" width="18.9319" x="0" y="0"></rect>
          <path d="M9.46143 18.9229C14.6745 18.9229 18.9319 14.6648 18.9319 9.46143C18.9319 4.25742 14.6738 0 9.46075 0C4.25742 0 0 4.25742 0 9.46143C0 14.6648 4.25811 18.9229 9.46143 18.9229ZM9.46143 18.4434C4.50694 18.4434 0.480185 14.4159 0.480185 9.46143C0.480185 4.50694 4.50626 0.47042 9.46075 0.47042C14.4152 0.47042 18.4524 4.50694 18.4524 9.46143C18.4524 14.4159 14.4159 18.4434 9.46143 18.4434Z" fill="#ffffff" fill-opacity="0.85"></path>
          <path d="M13.8578 10.5498C14.484 10.5498 14.9832 10.0513 14.9832 9.4335C14.9832 8.81573 14.484 8.31719 13.8578 8.31719C13.24 8.31719 12.7415 8.81573 12.7415 9.4335C12.7415 10.0513 13.24 10.5498 13.8578 10.5498Z" fill="#ffffff" fill-opacity="0.85"></path>
          <path d="M9.46075 10.5498C10.0876 10.5498 10.5771 10.0513 10.5771 9.4335C10.5771 8.81573 10.0876 8.31719 9.46075 8.31719C8.84297 8.31719 8.34444 8.81573 8.34444 9.4335C8.34444 10.0513 8.84297 10.5498 9.46075 10.5498Z" fill="#ffffff" fill-opacity="0.85"></path>
          <path d="M5.06436 10.5498C5.69053 10.5498 6.17999 10.0513 6.17999 9.4335C6.17999 8.81573 5.68985 8.31719 5.06436 8.31719C4.44658 8.31719 3.94805 8.81573 3.94805 9.4335C3.94805 10.0513 4.44658 10.5498 5.06436 10.5498Z" fill="#ffffff" fill-opacity="0.85"></path>
        </g>
</svg>
