<?xml version="1.0" encoding="UTF-8"?>
<!DOCTYPE svg PUBLIC "-//W3C//DTD SVG 1.1//EN" "http://www.w3.org/Graphics/SVG/1.1/DTD/svg11.dtd">
<svg xmlns="http://www.w3.org/2000/svg" xmlns:xlink="http://www.w3.org/1999/xlink" version="1.1" viewBox="-4 -4 25 25">
  <g>
    <rect height="22.452" opacity="0" width="22.4331" x="0" y="0"/>
    <path d="M11.2211 20.2149C16.163 20.2149 20.1856 16.1825 20.1856 11.2309C20.1856 6.28829 16.163 2.24688 11.2211 2.24688C6.27012 2.24688 2.24756 6.28829 2.24756 11.2309C2.24756 16.1825 6.27012 20.2149 11.2211 20.2149ZM11.2211 19.7583C6.5378 19.7583 2.69845 15.926 2.69845 11.2309C2.69845 6.53575 6.5378 2.70343 11.2211 2.70343C15.9044 2.70343 19.7347 6.53575 19.7347 11.2309C19.7347 15.926 15.9044 19.7583 11.2211 19.7583ZM11.2029 22.452C11.3665 22.452 11.4604 22.3302 11.4604 22.1939L11.4604 15.8459C11.4604 15.7096 11.3665 15.5885 11.2029 15.5885C11.0757 15.5885 10.9812 15.7096 10.9812 15.8459L10.9812 22.1939C10.9812 22.3302 11.0757 22.452 11.2029 22.452ZM0.258109 11.4708L6.60606 11.4708C6.74239 11.4708 6.86417 11.3763 6.86417 11.249C6.86417 11.0855 6.74239 10.9916 6.60606 10.9916L0.258109 10.9916C0.121779 10.9916 0 11.0855 0 11.249C0 11.3763 0.121779 11.4708 0.258109 11.4708ZM11.2029 6.87393C11.3665 6.87393 11.4604 6.75216 11.4604 6.61583L11.4604 0.267875C11.4604 0.131544 11.3665 0.00976562 11.2029 0.00976562C11.0757 0.00976562 10.9812 0.131544 10.9812 0.267875L10.9812 6.61583C10.9812 6.75216 11.0757 6.87393 11.2029 6.87393ZM15.8271 11.4708L22.1841 11.4708C22.3204 11.4708 22.4331 11.3763 22.4331 11.249C22.4331 11.0855 22.3204 10.9916 22.1841 10.9916L15.8271 10.9916C15.6998 10.9916 15.578 11.0855 15.578 11.249C15.578 11.3763 15.6998 11.4708 15.8271 11.4708Z" fill="#A9BBCA" fill-opacity="0.85"/>
  </g>
</svg>
