<?xml version="1.0" encoding="UTF-8"?>
<!DOCTYPE svg
PUBLIC "-//W3C//DTD SVG 1.1//EN"
       "http://www.w3.org/Graphics/SVG/1.1/DTD/svg11.dtd">
<svg version="1.1" xmlns="http://www.w3.org/2000/svg" xmlns:xlink="http://www.w3.org/1999/xlink" viewBox="-4 -4 25 25" >
   <g>
    <rect height="22.452" opacity="0" width="22.4331" x="0" y="0"/>
    <path d="M11.2211 20.2149C16.163 20.2149 20.1856 16.1825 20.1856 11.2309C20.1856 6.28829 16.163 2.24688 11.2211 2.24688C6.27012 2.24688 2.24756 6.28829 2.24756 11.2309C2.24756 16.1825 6.27012 20.2149 11.2211 20.2149ZM11.2211 19.7583C6.5378 19.7583 2.69845 15.926 2.69845 11.2309C2.69845 6.53575 6.5378 2.70343 11.2211 2.70343C15.9044 2.70343 19.7347 6.53575 19.7347 11.2309C19.7347 15.926 15.9044 19.7583 11.2211 19.7583ZM11.2029 22.452C11.3665 22.452 11.4604 22.3302 11.4604 22.1939L11.4604 15.8459C11.4604 15.7096 11.3665 15.5885 11.2029 15.5885C11.0757 15.5885 10.9812 15.7096 10.9812 15.8459L10.9812 22.1939C10.9812 22.3302 11.0757 22.452 11.2029 22.452ZM0.258109 11.4708L6.60606 11.4708C6.74239 11.4708 6.86417 11.3763 6.86417 11.249C6.86417 11.0855 6.74239 10.9916 6.60606 10.9916L0.258109 10.9916C0.121779 10.9916 0 11.0855 0 11.249C0 11.3763 0.121779 11.4708 0.258109 11.4708ZM11.2029 6.87393C11.3665 6.87393 11.4604 6.75216 11.4604 6.61583L11.4604 0.267875C11.4604 0.131544 11.3665 0.00976562 11.2029 0.00976562C11.0757 0.00976562 10.9812 0.131544 10.9812 0.267875L10.9812 6.61583C10.9812 6.75216 11.0757 6.87393 11.2029 6.87393ZM15.8271 11.4708L22.1841 11.4708C22.3204 11.4708 22.4331 11.3763 22.4331 11.249C22.4331 11.0855 22.3204 10.9916 22.1841 10.9916L15.8271 10.9916C15.6998 10.9916 15.578 11.0855 15.578 11.249C15.578 11.3763 15.6998 11.4708 15.8271 11.4708Z" fill="#ffffff" fill-opacity="0.85"/>
   </g>
<g transform="matrix(0.311284, 0, 0, 0.311284, -4, -4)" style="">
  <rect height="18.9326" opacity="0" width="18.9319" x="0" y="0"/>
  <path d="M9.46143 18.9229C14.6745 18.9229 18.9319 14.6648 18.9319 9.46143C18.9319 4.25742 14.6738 0 9.46075 0C4.25742 0 0 4.25742 0 9.46143C0 14.6648 4.25811 18.9229 9.46143 18.9229ZM9.46143 18.4434C4.50694 18.4434 0.480185 14.4159 0.480185 9.46143C0.480185 4.50694 4.50626 0.47042 9.46075 0.47042C14.4152 0.47042 18.4524 4.50694 18.4524 9.46143C18.4524 14.4159 14.4159 18.4434 9.46143 18.4434Z" fill="#ffffff" fill-opacity="0.85"/>
  <path d="M5.36914 8.75235C5.49571 8.75235 5.6084 8.64034 5.6084 8.50469L5.6084 7.70831L5.5918 5.8838L8.41025 8.74542C8.5209 8.85811 8.68086 8.85743 8.77335 8.7461C8.87491 8.65362 8.87423 8.49297 8.77266 8.39209L5.91241 5.57501L7.57911 5.57276L8.53897 5.59092C8.67462 5.59092 8.77755 5.47891 8.77755 5.35235C8.77755 5.2167 8.67462 5.104 8.53897 5.104L5.36827 5.104C5.23281 5.104 5.12148 5.20147 5.12148 5.34239L5.12148 8.50469C5.12148 8.64034 5.2335 8.75235 5.36914 8.75235ZM10.3923 13.7748L13.5623 13.7748C13.6978 13.7748 13.8007 13.6774 13.8007 13.5364L13.8007 10.3741C13.8007 10.2385 13.6971 10.1355 13.5614 10.1355C13.4349 10.1355 13.3229 10.2385 13.3229 10.3741L13.3229 11.1796L13.3297 13.0041L10.5119 10.1334C10.4097 10.0298 10.2504 10.0305 10.1572 10.1327C10.0557 10.2343 10.0563 10.3858 10.1579 10.4867L13.0188 13.3038L11.3431 13.3061L10.3923 13.2879C10.2566 13.2879 10.153 13.3999 10.153 13.5356C10.153 13.6621 10.2566 13.7748 10.3923 13.7748Z" fill="#ffffff" fill-opacity="0.85"/>
 </g>
        <g transform="matrix(0.311284, 0, 0, 0.311284, 17.120214, -4)" style="">
  <rect height="18.9326" opacity="0" width="18.9319" x="0" y="0"/>
  <path d="M9.46143 18.9229C14.6745 18.9229 18.9319 14.6648 18.9319 9.46143C18.9319 4.25742 14.6738 0 9.46075 0C4.25742 0 0 4.25742 0 9.46143C0 14.6648 4.25811 18.9229 9.46143 18.9229ZM9.46143 18.4434C4.50694 18.4434 0.480185 14.4159 0.480185 9.46143C0.480185 4.50694 4.50626 0.47042 9.46075 0.47042C14.4152 0.47042 18.4524 4.50694 18.4524 9.46143C18.4524 14.4159 14.4159 18.4434 9.46143 18.4434Z" fill="#ffffff" fill-opacity="0.85"/>
  <path d="M13.5614 8.75235C13.6971 8.75235 13.8007 8.64034 13.8007 8.50469L13.8007 5.34239C13.8007 5.20147 13.6978 5.104 13.5623 5.104L10.3923 5.104C10.2566 5.104 10.153 5.2167 10.153 5.35235C10.153 5.47891 10.2566 5.59092 10.3923 5.59092L11.3431 5.57276L13.0188 5.57501L10.1579 8.39209C10.0563 8.49297 10.0557 8.65362 10.1572 8.7461C10.2504 8.85743 10.4097 8.85811 10.5119 8.74542L13.3297 5.8838L13.3229 7.70831L13.3229 8.50469C13.3229 8.64034 13.4349 8.75235 13.5614 8.75235ZM8.53897 13.7748C8.67462 13.7748 8.77755 13.6621 8.77755 13.5356C8.77755 13.3999 8.67462 13.2879 8.53897 13.2879L7.57911 13.3061L5.91241 13.3038L8.77266 10.4867C8.87423 10.3858 8.87491 10.2343 8.77335 10.1327C8.68086 10.0305 8.5209 10.0298 8.41025 10.1334L5.5918 13.0041L5.6084 11.1796L5.6084 10.3741C5.6084 10.2385 5.49571 10.1355 5.36914 10.1355C5.2335 10.1355 5.12148 10.2385 5.12148 10.3741L5.12148 13.5364C5.12148 13.6774 5.23281 13.7748 5.36827 13.7748Z" fill="#ffffff" fill-opacity="0.85"/>
 </g>
</svg>
