<?xml version="1.0" encoding="UTF-8"?>
<!DOCTYPE svg PUBLIC "-//W3C//DTD SVG 1.1//EN" "http://www.w3.org/Graphics/SVG/1.1/DTD/svg11.dtd">
<svg xmlns="http://www.w3.org/2000/svg" xmlns:xlink="http://www.w3.org/1999/xlink" version="1.1" viewBox="-4 -4 25 25">
  <g>
    <rect height="20.4266" opacity="0" width="19.0811" x="0" y="0"/>
    <path d="M0.858598 15.6621L8.92559 20.0448C9.34531 20.2665 9.72666 20.2756 10.1652 20.0448L18.2225 15.6621C18.8757 15.3087 19.0811 14.9092 19.0811 14.2302L19.0811 5.50587C19.0811 5.13506 18.8462 4.86357 18.5254 4.68545L10.4579 0.232912C9.88477-0.0776374 9.19629-0.0776374 8.62314 0.232912L0.565435 4.68545C0.234864 4.86357 0 5.13506 0 5.50587L0 14.2302C0 14.9092 0.206057 15.3087 0.858598 15.6621ZM1.31973 15.3721C0.617098 14.996 0.530769 14.7366 0.530769 14.1723L0.530769 5.66397L9.2916 10.4002L9.2916 19.6591ZM17.7711 15.3721L9.79854 19.6591L9.79854 10.4002L18.5503 5.66397L18.5503 14.1723C18.5503 14.7366 18.464 14.996 17.7711 15.3721ZM9.54541 9.97754L0.644056 5.17412L4.91494 2.81895L13.8708 7.63282ZM14.3714 7.3708L5.42257 2.53946L9.00498 0.566807C9.34824 0.373251 9.7419 0.372567 10.0768 0.566807L18.4468 5.17412Z" fill="#A9BBCA" fill-opacity="0.85"/>
  </g>
</svg>
