<?xml version="1.0" encoding="UTF-8"?>
<!DOCTYPE svg
PUBLIC "-//W3C//DTD SVG 1.1//EN"
       "http://www.w3.org/Graphics/SVG/1.1/DTD/svg11.dtd">
<svg version="1.1" xmlns="http://www.w3.org/2000/svg" xmlns:xlink="http://www.w3.org/1999/xlink" viewBox="-4 -4 25 25" >
   <g>
    <rect height="20.4266" opacity="0" width="19.0811" x="0" y="0"/>
    <path d="M0.858598 15.6621L8.92559 20.0448C9.34531 20.2665 9.72666 20.2756 10.1652 20.0448L18.2225 15.6621C18.8757 15.3087 19.0811 14.9092 19.0811 14.2302L19.0811 5.50587C19.0811 5.13506 18.8462 4.86357 18.5254 4.68545L10.4579 0.232912C9.88477-0.0776374 9.19629-0.0776374 8.62314 0.232912L0.565435 4.68545C0.234864 4.86357 0 5.13506 0 5.50587L0 14.2302C0 14.9092 0.206057 15.3087 0.858598 15.6621ZM1.31973 15.3721C0.617098 14.996 0.530769 14.7366 0.530769 14.1723L0.530769 5.66397L9.2916 10.4002L9.2916 19.6591ZM17.7711 15.3721L9.79854 19.6591L9.79854 10.4002L18.5503 5.66397L18.5503 14.1723C18.5503 14.7366 18.464 14.996 17.7711 15.3721ZM9.54541 9.97754L0.644056 5.17412L4.91494 2.81895L13.8708 7.63282ZM14.3714 7.3708L5.42257 2.53946L9.00498 0.566807C9.34824 0.373251 9.7419 0.372567 10.0768 0.566807L18.4468 5.17412Z" fill="#ffffff" fill-opacity="0.85"/>
   </g>
<g transform="matrix(0.311284, 0, 0, 0.311284, -4, -4)" style="">
          <rect height="18.9326" opacity="0" width="18.9319" x="0" y="0"></rect>
          <path d="M9.46143 18.9229C14.6745 18.9229 18.9319 14.6648 18.9319 9.46143C18.9319 4.25742 14.6738 0 9.46075 0C4.25742 0 0 4.25742 0 9.46143C0 14.6648 4.25811 18.9229 9.46143 18.9229ZM9.46143 18.4434C4.50694 18.4434 0.480185 14.4159 0.480185 9.46143C0.480185 4.50694 4.50626 0.47042 9.46075 0.47042C14.4152 0.47042 18.4524 4.50694 18.4524 9.46143C18.4524 14.4159 14.4159 18.4434 9.46143 18.4434Z" fill="#ffffff" fill-opacity="0.85"></path>
          <path d="M13.8578 10.5498C14.484 10.5498 14.9832 10.0513 14.9832 9.4335C14.9832 8.81573 14.484 8.31719 13.8578 8.31719C13.24 8.31719 12.7415 8.81573 12.7415 9.4335C12.7415 10.0513 13.24 10.5498 13.8578 10.5498Z" fill="#ffffff" fill-opacity="0.85"></path>
          <path d="M9.46075 10.5498C10.0876 10.5498 10.5771 10.0513 10.5771 9.4335C10.5771 8.81573 10.0876 8.31719 9.46075 8.31719C8.84297 8.31719 8.34444 8.81573 8.34444 9.4335C8.34444 10.0513 8.84297 10.5498 9.46075 10.5498Z" fill="#ffffff" fill-opacity="0.85"></path>
          <path d="M5.06436 10.5498C5.69053 10.5498 6.17999 10.0513 6.17999 9.4335C6.17999 8.81573 5.68985 8.31719 5.06436 8.31719C4.44658 8.31719 3.94805 8.81573 3.94805 9.4335C3.94805 10.0513 4.44658 10.5498 5.06436 10.5498Z" fill="#ffffff" fill-opacity="0.85"></path>
        </g>
</svg>
